<?xml version="1.0" encoding="UTF-8" ?>
<!DOCTYPE svg PUBLIC "-//W3C//DTD SVG 1.1//EN" "http://www.w3.org/Graphics/SVG/1.1/DTD/svg11.dtd">
<svg width="1000pt" height="1000pt" viewBox="0 0 1000 1000" version="1.1" xmlns="http://www.w3.org/2000/svg">
<g id="#ffffffff">
<path fill="#ffffff" opacity="1.00" d=" M 0.00 0.00 L 1000.00 0.00 L 1000.00 1000.00 L 0.00 1000.00 L 0.00 0.00 M 712.07 164.29 C 682.49 172.81 655.91 191.10 637.19 215.51 C 585.86 193.70 533.61 171.84 477.96 164.09 C 470.44 162.30 462.69 161.96 455.01 161.45 C 444.59 161.77 434.23 159.51 423.82 160.83 C 417.64 161.84 411.36 161.11 405.15 161.62 C 378.31 163.78 351.91 169.82 326.03 177.06 C 304.26 183.67 282.49 191.09 262.97 202.97 C 240.29 216.05 219.90 232.96 202.30 252.32 C 193.40 261.59 186.00 272.14 178.22 282.33 C 159.24 309.36 144.82 339.29 133.02 370.05 C 121.83 400.94 113.65 432.89 108.45 465.31 C 106.36 474.38 105.93 483.72 104.72 492.92 C 102.70 505.86 102.55 518.97 101.41 531.99 C 101.26 553.21 100.70 574.48 102.48 595.64 C 106.49 621.32 115.00 646.14 126.16 669.56 C 125.21 676.62 132.21 680.89 136.17 685.67 C 136.51 687.66 136.91 689.65 137.40 691.62 C 135.92 690.23 133.92 689.37 131.87 689.60 C 129.32 691.53 131.01 695.32 132.38 697.56 C 137.18 703.49 143.97 707.29 149.66 712.27 C 154.13 715.89 157.60 720.54 160.60 725.41 C 162.36 727.95 162.17 731.18 162.70 734.11 C 159.90 731.57 157.01 729.14 153.95 726.92 C 147.43 722.14 142.89 715.34 137.69 709.27 C 135.46 706.80 132.56 704.13 128.99 704.39 C 125.87 704.62 124.85 708.33 125.47 710.92 C 126.95 717.17 132.37 721.55 137.97 724.12 C 146.42 728.11 156.22 730.15 162.87 737.17 C 163.63 741.29 163.41 745.52 163.42 749.70 C 155.61 749.78 147.81 749.71 140.00 749.74 C 139.99 753.03 139.98 756.33 140.02 759.64 C 142.34 759.62 144.67 759.62 147.00 759.61 C 148.80 770.78 150.62 781.94 152.44 793.11 C 143.25 793.22 134.04 792.94 124.86 793.23 L 124.21 794.03 L 124.72 795.27 C 210.14 795.54 295.58 795.30 381.00 795.38 C 480.35 795.38 579.69 795.38 679.04 795.38 C 738.23 795.27 797.43 795.59 856.61 795.23 C 857.64 792.55 854.47 793.13 852.96 793.10 C 824.19 793.17 795.43 793.06 766.66 793.15 C 770.39 789.90 772.30 784.43 770.21 779.75 C 768.22 775.82 765.60 772.25 763.33 768.48 C 764.67 767.45 766.42 767.75 768.00 767.68 C 811.70 767.78 855.40 767.63 899.11 767.76 C 899.49 698.59 899.06 629.41 899.32 560.25 C 901.31 556.17 899.97 551.39 901.54 547.15 C 902.55 540.15 903.84 533.13 903.75 526.02 C 903.97 508.91 904.49 491.38 899.30 474.86 C 899.15 417.16 899.34 359.45 899.21 301.75 C 864.12 301.75 829.03 301.76 793.95 301.74 C 793.25 300.78 792.55 299.81 791.87 298.85 C 827.55 298.83 863.23 298.85 898.91 298.84 C 897.95 281.77 894.57 264.76 887.97 248.95 C 876.73 221.35 856.71 197.47 831.61 181.45 C 796.71 158.83 751.92 152.52 712.07 164.29 M 582.59 814.26 C 582.83 823.51 582.22 832.80 582.89 842.01 C 583.68 847.68 591.74 849.17 595.36 845.35 C 597.21 843.38 597.28 840.52 597.38 837.99 C 597.44 830.11 597.31 822.23 597.44 814.36 C 596.20 814.28 594.97 814.23 593.74 814.20 C 593.66 823.05 593.92 831.90 593.63 840.74 C 593.53 844.95 586.50 844.89 586.48 840.69 C 586.23 831.90 586.41 823.10 586.41 814.31 C 585.13 814.28 583.86 814.26 582.59 814.26 M 600.69 814.34 C 600.82 825.24 600.72 836.14 600.75 847.04 C 601.59 847.03 603.28 847.02 604.12 847.02 C 604.19 838.53 604.02 830.05 604.21 821.57 C 607.04 829.98 609.59 838.50 612.30 846.96 C 613.61 846.98 614.93 847.01 616.26 847.05 C 616.25 836.11 616.26 825.17 616.25 814.24 C 615.40 814.24 613.71 814.25 612.86 814.25 C 612.85 821.91 612.98 829.57 612.76 837.24 C 610.41 829.54 607.92 821.89 605.46 814.23 C 603.86 814.25 602.27 814.28 600.69 814.34 M 625.19 814.22 C 623.03 825.17 620.97 836.14 618.86 847.10 C 619.71 847.06 621.41 846.98 622.26 846.94 C 622.94 844.84 623.22 842.65 623.66 840.51 C 626.36 840.50 629.06 840.50 631.77 840.50 C 632.17 842.65 632.60 844.83 633.00 846.99 C 634.26 846.98 635.53 846.98 636.80 846.98 C 634.73 836.08 632.62 825.18 630.56 814.28 C 628.76 814.25 626.97 814.23 625.19 814.22 M 639.37 814.27 C 639.52 823.36 639.13 832.49 639.57 841.57 C 640.04 847.38 647.94 849.20 651.85 845.62 C 653.93 843.67 654.09 840.61 654.13 837.96 C 654.12 830.05 654.11 822.15 654.13 814.24 C 652.90 814.24 651.69 814.24 650.48 814.26 C 650.40 823.17 650.71 832.10 650.34 841.00 C 650.04 844.83 643.61 844.84 643.27 841.02 C 642.88 832.10 643.28 823.14 643.09 814.21 C 641.84 814.22 640.60 814.24 639.37 814.27 M 656.25 814.25 C 656.24 815.40 656.24 816.57 656.25 817.75 C 658.24 817.74 660.23 817.74 662.24 817.75 C 662.24 827.49 662.26 837.24 662.23 846.98 C 663.49 846.99 664.75 847.02 666.02 847.05 C 666.00 837.27 666.00 827.50 666.02 817.73 C 668.00 817.74 669.99 817.75 671.98 817.77 C 671.99 816.58 672.00 815.41 672.02 814.24 C 666.76 814.24 661.50 814.25 656.25 814.25 M 674.37 814.24 C 674.36 825.14 674.40 836.03 674.35 846.93 C 675.60 846.97 676.86 847.02 678.13 847.08 C 678.11 842.17 678.10 837.27 678.15 832.38 C 680.74 832.37 683.34 832.37 685.94 832.36 C 686.02 837.26 685.99 842.15 685.98 847.06 C 687.24 847.01 688.50 846.98 689.78 846.96 C 689.72 836.06 689.77 825.16 689.75 814.26 C 688.50 814.25 687.25 814.24 686.01 814.25 C 685.97 819.17 686.01 824.09 685.98 829.01 C 683.35 829.00 680.74 828.98 678.13 828.96 C 678.11 824.05 678.14 819.14 678.10 814.24 C 676.85 814.23 675.61 814.23 674.37 814.24 M 697.35 814.46 C 693.04 816.02 692.82 821.21 692.97 825.06 C 693.25 830.89 692.41 836.82 693.53 842.58 C 695.17 849.01 705.99 849.03 707.66 842.60 C 708.62 838.14 707.93 833.52 708.13 829.01 C 707.95 825.25 708.72 821.27 707.28 817.70 C 705.63 813.98 700.83 813.25 697.35 814.46 M 711.49 814.26 C 711.47 825.15 711.56 836.04 711.43 846.93 C 712.69 846.97 713.97 847.02 715.26 847.07 C 715.25 842.39 715.25 837.72 715.26 833.05 C 717.77 833.11 721.65 832.76 722.21 836.08 C 722.56 839.71 722.15 843.40 722.78 847.02 C 723.73 847.02 725.64 847.03 726.59 847.03 C 725.16 841.79 728.13 834.90 723.05 831.13 C 724.46 829.74 726.00 828.20 726.02 826.07 C 726.21 822.35 726.87 817.23 723.00 815.10 C 719.37 813.60 715.30 814.45 711.49 814.26 M 729.77 814.23 C 729.71 825.17 729.78 836.11 729.73 847.05 C 731.02 847.01 732.33 846.98 733.64 846.96 C 733.62 836.05 733.64 825.14 733.62 814.23 C 732.33 814.22 731.04 814.22 729.77 814.23 M 737.14 814.24 C 737.12 815.40 737.12 816.57 737.14 817.75 C 740.68 817.76 744.22 817.76 747.78 817.74 C 745.10 823.99 742.39 830.23 739.72 836.48 C 738.31 839.88 736.29 843.21 736.52 847.04 C 741.54 846.99 746.57 846.99 751.60 847.03 C 751.61 846.17 751.62 844.46 751.63 843.60 C 747.92 843.63 744.22 843.64 740.52 843.56 C 743.28 837.29 745.94 830.99 748.67 824.71 C 750.05 821.33 752.11 818.06 751.86 814.26 C 746.95 814.23 742.04 814.24 737.14 814.24 M 754.87 814.25 C 754.88 825.17 754.88 836.09 754.87 847.01 C 759.37 847.00 763.87 847.00 768.38 847.00 C 768.39 846.16 768.39 844.46 768.39 843.62 C 765.13 843.63 761.88 843.62 758.63 843.61 C 758.62 839.78 758.62 835.96 758.62 832.14 C 761.28 832.13 763.95 832.12 766.63 832.13 C 766.63 831.28 766.62 829.59 766.62 828.75 C 763.95 828.74 761.28 828.74 758.62 828.71 C 758.62 825.05 758.62 821.40 758.63 817.75 C 761.88 817.75 765.13 817.75 768.39 817.74 C 768.38 816.57 768.38 815.41 768.38 814.27 C 763.88 814.23 759.37 814.24 754.87 814.25 M 771.63 814.25 C 771.61 825.17 771.63 836.08 771.61 847.00 C 775.06 846.92 778.57 847.30 782.00 846.70 C 784.95 846.04 786.68 843.00 786.71 840.12 C 786.83 834.07 786.75 828.02 786.75 821.97 C 786.83 819.01 785.50 815.62 782.43 814.74 C 778.91 813.82 775.21 814.37 771.63 814.25 Z" />
<path fill="#ffffff" opacity="1.00" d=" M 688.34 189.29 C 705.50 179.68 724.84 174.10 744.46 172.85 C 744.56 204.10 744.53 235.35 744.47 266.60 C 739.07 263.43 733.90 259.77 727.91 257.77 C 727.11 257.39 726.38 256.91 725.71 256.35 C 705.79 239.38 685.90 222.37 665.89 205.50 C 672.39 198.91 680.38 193.94 688.34 189.29 Z" />
<path fill="#ffffff" opacity="1.00" d=" M 758.63 172.69 C 785.85 173.73 812.62 183.49 834.12 200.20 C 809.09 223.90 783.99 247.56 758.72 271.00 C 758.45 238.23 758.63 205.46 758.63 172.69 Z" />
<path fill="#ffffff" opacity="1.00" d=" M 843.15 211.19 C 844.06 210.30 845.26 209.40 846.17 210.87 C 865.98 230.64 879.53 256.94 883.15 284.76 C 844.02 284.59 804.88 284.99 765.76 284.55 C 769.74 279.65 774.70 275.68 779.24 271.30 C 800.50 251.22 821.90 231.28 843.15 211.19 Z" />
<path fill="#ffffff" opacity="1.00" d=" M 655.46 215.22 C 661.30 220.17 667.45 224.84 672.82 230.31 C 664.79 228.90 658.01 223.97 650.44 221.23 C 652.11 219.22 653.78 217.22 655.46 215.22 Z" />
<path fill="#ffffff" opacity="1.00" d=" M 808.78 313.23 C 835.36 313.30 861.94 313.18 888.52 313.29 C 888.51 339.53 888.52 365.78 888.51 392.02 C 888.28 405.41 888.96 418.79 888.53 432.17 C 888.04 430.44 887.26 428.83 886.38 427.28 C 886.80 427.26 887.65 427.21 888.07 427.19 C 888.37 423.50 888.28 419.80 888.14 416.11 C 886.16 416.06 884.18 416.00 882.21 415.99 C 878.41 407.04 874.89 397.86 869.36 389.80 C 865.10 383.43 862.78 375.94 858.09 369.83 C 848.22 356.84 839.05 343.16 826.98 332.03 C 821.25 325.45 814.98 319.37 808.78 313.23 Z" />
<path fill="#ffffff" opacity="1.00" d=" M 355.28 395.30 C 354.22 387.91 362.06 382.03 368.97 383.84 C 374.88 384.76 379.40 391.30 377.11 397.10 C 375.91 400.98 371.98 402.62 368.81 404.58 C 366.65 403.24 365.61 400.78 363.68 399.19 C 361.29 397.15 358.24 396.15 355.28 395.30 Z" />
<path fill="#ffffff" opacity="1.00" d=" M 420.14 489.32 C 423.70 487.67 427.74 492.31 425.51 495.59 C 424.09 498.41 419.69 498.64 418.04 495.94 C 416.32 493.73 417.52 490.17 420.14 489.32 Z" />
<path fill="#ffffff" opacity="1.00" d=" M 822.81 505.66 C 826.33 505.61 832.10 505.26 832.44 510.10 C 832.57 581.38 832.46 652.67 832.50 723.96 C 832.36 727.32 832.83 730.75 832.20 734.08 C 830.74 737.99 826.04 736.99 822.80 737.20 C 823.53 735.56 824.40 733.89 824.26 732.05 C 824.24 660.37 824.25 588.70 824.25 517.02 C 824.18 513.19 824.84 509.12 822.81 505.66 Z" />
<path fill="#ffffff" opacity="1.00" d=" M 559.37 515.13 C 643.08 515.13 726.78 515.10 810.49 515.14 C 810.48 570.92 810.53 626.70 810.47 682.49 C 738.46 682.57 666.45 682.37 594.45 682.59 C 594.36 681.36 595.10 679.33 593.57 678.73 C 590.21 677.72 586.60 678.31 583.20 677.44 C 576.55 675.81 570.02 673.70 563.49 671.67 C 565.18 670.71 566.95 669.68 568.97 669.78 C 576.83 669.62 584.81 670.25 592.54 668.38 C 596.17 667.44 600.30 666.75 602.93 663.84 C 604.67 661.61 602.42 658.65 600.01 658.30 C 589.73 656.83 579.34 656.04 568.95 656.40 C 572.16 655.09 575.32 653.29 578.90 653.34 C 586.10 652.98 593.96 654.21 600.48 650.39 C 602.57 649.35 603.66 646.17 601.55 644.60 C 597.61 641.69 592.53 641.08 587.83 640.30 C 590.23 639.73 592.52 638.72 594.28 636.96 C 604.89 636.77 615.50 636.93 626.11 636.88 C 626.13 644.38 626.11 651.88 626.12 659.38 C 632.58 659.38 639.05 659.37 645.51 659.39 C 645.50 651.88 645.50 644.38 645.51 636.88 C 648.59 636.88 651.67 636.88 654.75 636.85 C 654.74 630.85 654.79 624.85 654.72 618.85 C 651.64 618.87 648.57 618.87 645.50 618.86 C 645.50 590.82 645.53 562.77 645.49 534.73 C 638.32 534.78 631.14 534.69 623.98 534.78 C 612.43 562.23 600.80 589.64 589.20 617.07 C 587.82 620.81 588.73 624.92 588.53 628.82 C 578.80 628.61 569.04 629.18 559.38 630.29 C 559.40 591.90 559.41 553.52 559.37 515.13 M 685.61 533.70 C 679.18 534.58 672.81 537.43 668.65 542.54 C 663.71 548.46 661.98 556.40 661.98 563.95 C 662.01 586.29 661.98 608.64 662.00 630.98 C 662.10 638.44 664.00 646.23 668.98 651.99 C 673.69 657.44 680.85 660.19 687.91 660.69 C 696.60 661.42 706.16 659.89 712.76 653.76 C 719.25 647.77 721.47 638.59 721.50 630.05 C 721.50 608.04 721.51 586.02 721.50 564.01 C 721.49 555.22 719.04 545.72 712.12 539.81 C 704.91 533.61 694.71 532.52 685.61 533.70 M 760.47 546.49 C 756.42 549.67 751.11 550.26 746.15 550.45 C 746.12 555.10 746.06 559.76 746.20 564.42 C 751.21 564.34 756.23 564.38 761.26 564.38 C 761.29 596.07 761.11 627.75 761.35 659.43 C 767.90 659.32 774.46 659.41 781.02 659.38 C 781.00 617.83 781.00 576.29 781.02 534.74 C 776.58 534.73 772.14 534.75 767.70 534.74 C 766.05 539.04 764.24 543.59 760.47 546.49 Z" />
<path fill="#ffffff" opacity="1.00" d=" M 421.36 515.34 C 424.27 522.66 427.19 529.98 429.44 537.54 C 424.67 538.28 419.80 538.61 415.02 537.76 C 416.30 530.07 419.11 522.77 421.36 515.34 Z" />
<path fill="#ffffff" opacity="1.00" d=" M 688.43 551.61 C 691.62 550.88 695.29 551.04 698.02 553.03 C 700.99 555.39 701.76 559.43 701.75 563.03 C 701.74 585.71 701.74 608.39 701.75 631.07 C 701.82 635.09 700.73 639.90 696.81 641.84 C 692.57 643.76 686.57 643.35 683.72 639.27 C 681.32 635.66 681.65 631.11 681.62 626.98 C 681.64 606.33 681.64 585.68 681.61 565.04 C 681.32 559.89 682.55 553.01 688.43 551.61 Z" />
<path fill="#ffffff" opacity="1.00" d=" M 606.62 618.87 C 613.12 603.70 619.27 588.37 626.00 573.31 C 626.28 588.49 626.03 603.68 626.13 618.86 C 619.63 618.88 613.12 618.87 606.62 618.87 Z" />
<path fill="#ffffff" opacity="1.00" d=" M 869.01 644.40 C 876.88 630.52 883.20 615.84 888.50 600.80 C 888.39 622.55 888.75 644.30 888.51 666.04 C 888.43 696.17 888.69 726.30 888.38 756.43 C 845.68 756.31 802.99 756.50 760.29 756.34 C 763.91 753.87 767.70 751.69 771.55 749.60 C 776.81 746.74 781.49 742.98 786.26 739.39 C 800.16 739.32 814.07 739.47 827.97 739.33 C 831.82 739.47 835.02 735.86 834.74 732.09 C 834.81 719.29 834.69 706.49 834.79 693.70 C 843.50 687.15 848.30 677.12 854.53 668.46 C 857.36 664.35 860.13 660.19 862.41 655.75 C 870.89 655.69 879.37 655.69 887.86 655.75 C 888.23 652.00 888.31 648.24 888.14 644.48 C 881.76 644.32 875.38 644.41 869.01 644.40 Z" />
<path fill="#ffffff" opacity="1.00" d=" M 547.72 697.54 C 639.13 697.43 730.54 697.59 821.94 697.46 C 822.05 708.99 821.99 720.54 821.98 732.07 C 822.36 735.31 819.01 737.64 816.01 737.13 C 728.35 737.08 640.69 737.15 553.03 737.10 C 550.15 737.41 547.55 734.91 547.77 732.03 C 547.68 720.53 547.80 709.03 547.72 697.54 Z" />
<path fill="#ffffff" opacity="1.00" d=" M 163.52 726.81 C 163.78 726.39 164.30 725.56 164.56 725.15 C 166.16 726.72 167.77 728.28 169.40 729.84 L 169.55 729.99 C 168.22 732.03 166.75 734.05 164.59 735.30 C 164.25 732.46 163.92 729.63 163.52 726.81 Z" />
<path fill="#ffffff" opacity="1.00" d=" M 164.67 736.77 C 166.68 734.96 168.71 733.18 170.74 731.40 C 173.44 734.53 176.45 737.44 180.08 739.50 C 180.19 740.61 180.30 741.73 180.40 742.86 C 178.50 745.17 176.57 747.46 174.58 749.70 C 171.56 749.74 168.54 749.74 165.52 749.73 C 165.33 745.40 165.05 741.08 164.67 736.77 Z" />
<path fill="#ffffff" opacity="1.00" d=" M 177.07 749.73 C 178.74 747.68 180.40 745.63 181.98 743.53 C 183.04 743.57 184.09 743.68 185.14 743.86 C 187.07 745.60 188.79 747.77 191.29 748.74 C 193.55 749.53 195.99 749.58 198.36 749.83 C 191.26 749.57 184.17 749.82 177.07 749.73 Z" />
<path fill="#ffffff" opacity="1.00" d=" M 685.02 748.51 C 706.09 748.49 727.16 748.52 748.23 748.50 C 754.77 759.03 761.41 769.52 767.81 780.14 C 770.92 785.52 766.31 793.01 760.15 792.84 C 741.77 792.92 723.40 792.84 705.02 792.87 C 704.74 787.70 705.99 781.89 702.80 777.37 C 696.83 767.78 691.01 758.09 685.02 748.51 Z" />
<path fill="#ffffff" opacity="1.00" d=" M 485.77 758.95 C 498.25 757.74 510.49 754.73 523.01 753.91 C 541.98 752.92 560.66 757.02 579.11 760.84 C 596.02 765.52 613.02 769.89 630.16 773.64 C 652.77 778.55 676.32 780.11 699.18 775.93 C 700.89 778.45 702.51 781.14 702.80 784.26 C 701.90 784.25 700.10 784.24 699.20 784.23 C 699.14 783.50 699.01 782.02 698.95 781.28 C 695.69 781.27 692.42 781.10 689.18 781.35 C 688.99 782.10 688.60 783.59 688.41 784.34 C 688.34 783.58 688.20 782.04 688.13 781.28 C 684.83 781.21 681.54 781.19 678.25 781.39 C 678.16 782.28 678.06 783.19 677.95 784.10 C 677.85 783.46 677.67 782.18 677.57 781.54 C 674.37 780.94 671.09 781.33 667.86 781.29 C 667.76 782.09 667.56 783.71 667.46 784.51 C 667.39 783.81 667.24 782.41 667.17 781.71 C 663.89 780.74 660.37 781.42 657.00 781.27 C 656.90 782.10 656.71 783.76 656.61 784.58 C 656.48 783.77 656.22 782.13 656.09 781.31 C 652.73 781.35 649.29 780.83 645.99 781.62 C 645.86 782.34 645.59 783.79 645.46 784.51 C 645.39 783.70 645.26 782.09 645.19 781.28 C 641.96 781.27 638.71 781.07 635.50 781.43 C 635.37 782.12 635.13 783.49 635.01 784.17 C 634.91 783.23 634.82 782.30 634.73 781.38 C 631.42 781.20 628.12 781.22 624.81 781.28 C 624.74 782.04 624.60 783.58 624.53 784.35 C 624.34 783.61 623.96 782.14 623.77 781.41 C 620.54 781.05 617.28 781.27 614.04 781.32 C 613.80 782.33 613.57 783.34 613.35 784.37 C 613.31 783.64 613.24 782.16 613.21 781.43 C 609.76 781.08 606.28 781.11 602.85 781.55 C 602.73 782.28 602.49 783.74 602.37 784.47 C 602.35 783.67 602.31 782.06 602.29 781.26 C 599.02 781.24 595.76 781.24 592.50 781.26 C 592.60 782.05 592.80 783.61 592.90 784.39 C 592.49 783.39 592.06 782.41 591.60 781.46 C 588.37 780.96 585.08 781.33 581.83 781.28 C 581.82 782.06 581.79 783.64 581.78 784.42 C 581.52 783.39 581.22 782.38 580.90 781.38 C 577.65 781.13 574.37 781.12 571.12 781.42 C 570.80 782.37 570.50 783.34 570.25 784.34 C 570.25 783.58 570.25 782.05 570.25 781.29 C 566.93 781.22 563.61 781.21 560.30 781.34 C 560.18 782.25 560.07 783.17 559.96 784.11 C 559.85 783.45 559.63 782.14 559.52 781.48 C 556.29 781.02 553.02 781.29 549.78 781.27 C 549.76 782.03 549.73 783.55 549.72 784.31 C 549.46 783.31 549.13 782.35 548.72 781.44 C 545.52 781.04 542.28 781.17 539.08 781.36 C 538.96 782.09 538.72 783.57 538.60 784.31 C 538.34 783.29 538.08 782.28 537.83 781.28 C 534.51 781.36 531.10 780.83 527.85 781.65 C 527.79 782.39 527.67 783.86 527.62 784.60 C 527.41 783.48 527.22 782.37 527.04 781.27 C 523.97 781.26 520.90 781.11 517.85 781.33 C 517.65 782.02 517.25 783.38 517.05 784.06 C 516.91 783.15 516.80 782.26 516.71 781.37 C 513.37 781.19 510.03 781.22 506.70 781.29 C 506.71 782.07 506.74 783.62 506.75 784.40 C 506.47 783.38 506.15 782.37 505.80 781.39 C 502.61 781.13 499.40 781.11 496.22 781.39 C 496.04 782.14 495.70 783.63 495.52 784.37 C 495.35 783.33 495.19 782.29 495.03 781.27 C 491.82 781.29 488.59 781.05 485.40 781.42 C 484.92 782.38 484.49 783.38 484.11 784.39 C 484.21 783.62 484.40 782.06 484.50 781.28 C 481.17 781.21 477.84 781.21 474.51 781.31 C 474.46 782.03 474.36 783.47 474.32 784.19 C 472.98 784.24 471.65 784.31 470.33 784.39 C 470.24 787.30 470.23 790.21 470.24 793.13 C 466.59 793.11 462.93 793.12 459.28 793.13 C 470.42 783.69 477.97 771.08 485.77 758.95 Z" />
<path fill="#ffffff" opacity="1.00" d=" M 472.52 786.50 C 530.34 786.52 588.16 786.51 645.98 786.51 C 645.98 788.65 645.99 790.81 645.99 792.98 C 588.16 793.00 530.33 793.00 472.50 792.98 C 472.50 790.81 472.51 788.65 472.52 786.50 Z" />
<path fill="#ffffff" opacity="1.00" d=" M 699.46 817.52 C 701.75 816.74 704.36 818.52 704.28 821.01 C 704.54 826.01 704.27 831.02 704.40 836.04 C 704.27 838.23 704.73 840.69 703.45 842.65 C 701.65 844.91 697.26 844.04 696.96 840.98 C 696.47 835.35 696.89 829.67 696.73 824.03 C 696.71 821.67 696.58 818.26 699.46 817.52 Z" />
<path fill="#ffffff" opacity="1.00" d=" M 715.28 817.70 C 717.62 817.86 721.44 816.98 722.14 820.14 C 722.42 822.86 722.94 825.97 721.51 828.46 C 719.82 830.03 717.34 829.48 715.26 829.70 C 715.25 825.69 715.25 821.69 715.28 817.70 Z" />
<path fill="#ffffff" opacity="1.00" d=" M 775.40 843.66 C 775.40 834.99 775.33 826.33 775.43 817.66 C 777.89 817.93 781.72 816.93 782.75 820.02 C 783.57 825.63 782.92 831.36 783.14 837.02 C 783.00 839.12 783.38 842.07 781.12 843.20 C 779.29 843.84 777.29 843.53 775.40 843.66 Z" />
<path fill="#ffffff" opacity="1.00" d=" M 627.56 818.89 C 628.93 824.98 630.02 831.12 631.22 837.24 C 628.85 837.24 626.49 837.23 624.13 837.25 C 625.27 831.13 626.50 825.03 627.56 818.89 Z" />
</g>
<g id="#b3b3b3ff">
<path fill="#b3b3b3" opacity="1.00" d=" M 712.07 164.29 C 751.92 152.52 796.71 158.83 831.61 181.45 C 856.71 197.47 876.73 221.35 887.97 248.95 C 894.57 264.76 897.95 281.77 898.91 298.84 C 863.23 298.85 827.55 298.83 791.87 298.85 C 730.26 298.85 668.66 298.84 607.06 298.86 C 608.31 268.86 618.82 239.30 637.19 215.51 C 655.91 191.10 682.49 172.81 712.07 164.29 M 688.34 189.29 C 680.38 193.94 672.39 198.91 665.89 205.50 C 685.90 222.37 705.79 239.38 725.71 256.35 C 726.38 256.91 727.11 257.39 727.91 257.77 C 733.04 262.90 738.65 267.58 744.46 271.92 C 744.46 270.14 744.48 268.37 744.47 266.60 C 744.53 235.35 744.56 204.10 744.46 172.85 C 724.84 174.10 705.50 179.68 688.34 189.29 M 758.63 172.69 C 758.63 205.46 758.45 238.23 758.72 271.00 C 783.99 247.56 809.09 223.90 834.12 200.20 C 812.62 183.49 785.85 173.73 758.63 172.69 M 843.15 211.19 C 821.90 231.28 800.50 251.22 779.24 271.30 C 774.70 275.68 769.74 279.65 765.76 284.55 C 804.88 284.99 844.02 284.59 883.15 284.76 C 879.53 256.94 865.98 230.64 846.17 210.87 C 845.26 209.40 844.06 210.30 843.15 211.19 M 655.46 215.22 C 653.78 217.22 652.11 219.22 650.44 221.23 C 635.74 239.38 625.76 261.58 622.75 284.78 C 660.87 284.73 699.00 284.80 737.13 284.75 C 716.66 266.88 695.72 249.54 675.15 231.77 C 674.41 231.21 673.74 230.50 672.82 230.31 C 667.45 224.84 661.30 220.17 655.46 215.22 Z" />
<path fill="#b3b3b3" opacity="1.00" d=" M 608.58 301.80 C 670.37 301.71 732.16 301.84 793.95 301.74 C 829.03 301.76 864.12 301.75 899.21 301.75 C 899.34 359.45 899.15 417.16 899.30 474.86 C 899.23 503.32 899.19 531.79 899.32 560.25 C 899.06 629.41 899.49 698.59 899.11 767.76 C 855.40 767.63 811.70 767.78 768.00 767.68 C 766.42 767.75 764.67 767.45 763.33 768.48 C 758.69 760.87 753.95 753.31 749.25 745.74 C 749.47 743.70 749.66 741.66 749.87 739.64 C 753.30 739.57 756.74 739.58 760.19 739.67 C 760.26 745.22 760.17 750.78 760.29 756.34 C 802.99 756.50 845.68 756.31 888.38 756.43 C 888.69 726.30 888.43 696.17 888.51 666.04 C 888.75 644.30 888.39 622.55 888.50 600.80 C 888.64 544.59 888.48 488.39 888.53 432.17 C 888.96 418.79 888.28 405.41 888.51 392.02 C 888.52 365.78 888.51 339.53 888.52 313.29 C 861.94 313.18 835.36 313.30 808.78 313.23 C 792.61 313.20 776.44 313.20 760.28 313.24 C 760.15 347.48 760.27 381.72 760.21 415.96 C 800.88 416.09 841.54 416.03 882.21 415.99 C 884.18 416.00 886.16 416.06 888.14 416.11 C 888.28 419.80 888.37 423.50 888.07 427.19 C 887.65 427.21 886.80 427.26 886.38 427.28 C 844.34 427.47 802.31 427.34 760.28 427.35 C 760.10 452.73 760.38 478.12 760.13 503.50 C 756.65 503.50 753.17 503.51 749.70 503.50 C 749.58 478.12 749.69 452.74 749.64 427.37 C 706.19 427.36 662.73 427.38 619.28 427.36 C 619.16 452.74 619.37 478.12 619.17 503.50 C 615.65 503.51 612.12 503.50 608.60 503.49 C 608.45 436.27 608.50 369.03 608.58 301.80 M 619.25 313.26 C 619.23 347.49 619.29 381.71 619.23 415.94 C 662.71 416.07 706.20 416.11 749.68 415.92 C 749.61 381.70 749.66 347.49 749.66 313.28 C 706.19 313.17 662.72 313.19 619.25 313.26 Z" />
<path fill="#b3b3b3" opacity="1.00" d=" M 496.72 435.88 C 501.71 431.01 505.72 425.29 509.68 419.58 C 511.07 426.41 511.49 433.40 511.03 440.35 C 507.44 436.34 501.87 435.23 496.72 435.88 Z" />
<path fill="#b3b3b3" opacity="1.00" d=" M 492.70 443.81 C 496.29 438.87 503.88 439.76 508.07 443.50 C 508.95 443.11 509.85 442.73 510.74 442.35 C 509.47 451.70 505.73 460.62 505.28 470.06 C 507.40 479.70 508.02 489.78 506.33 499.54 C 505.75 501.45 505.42 504.55 502.94 504.79 C 499.05 505.09 495.29 503.82 491.51 503.16 C 490.28 505.97 489.38 509.07 487.17 511.31 C 481.88 511.70 474.19 510.41 471.79 516.72 C 470.31 520.28 471.97 524.08 471.67 527.74 C 470.11 530.44 467.07 531.84 464.73 533.80 C 461.13 536.35 457.56 539.89 452.92 540.05 C 445.68 537.56 439.47 532.84 433.01 528.85 C 430.77 527.16 427.62 526.05 426.84 523.07 C 425.56 519.38 423.74 515.85 422.86 512.04 C 422.58 508.13 422.81 504.20 422.79 500.29 C 425.16 499.29 427.72 497.78 428.21 495.01 C 429.58 490.33 424.66 485.50 420.02 486.96 C 415.97 487.77 413.71 492.76 415.62 496.39 C 416.48 498.44 418.58 499.41 420.47 500.30 C 420.32 504.91 421.18 509.71 419.48 514.13 C 417.67 518.92 416.38 523.89 414.66 528.72 C 407.44 534.74 397.86 538.19 392.43 546.20 C 384.06 538.72 376.06 530.83 367.90 523.13 C 369.24 520.68 370.51 518.20 371.72 515.68 C 376.73 514.34 381.26 511.65 385.07 508.15 C 403.57 490.62 426.14 478.25 448.64 466.63 C 462.39 459.73 476.73 453.54 488.57 443.47 C 489.74 444.27 491.67 445.62 492.70 443.81 M 492.31 451.35 C 490.53 451.65 489.96 454.57 491.57 455.42 C 493.63 456.03 495.85 456.30 497.59 457.68 C 494.82 459.86 492.24 463.49 493.75 467.14 C 495.20 468.71 496.92 466.95 498.33 466.27 C 499.73 466.53 501.75 467.33 502.50 465.53 C 503.36 462.73 503.16 459.61 502.16 456.88 C 500.76 452.95 496.29 450.86 492.31 451.35 Z" />
<path fill="#b3b3b3" opacity="1.00" d=" M 834.75 529.13 C 852.55 529.20 870.34 529.02 888.13 529.23 C 888.27 532.94 888.27 536.66 888.15 540.37 C 870.35 540.58 852.55 540.47 834.75 540.43 C 834.73 536.66 834.74 532.90 834.75 529.13 Z" />
<path fill="#b3b3b3" opacity="1.00" d=" M 426.30 587.22 C 430.18 585.10 434.75 585.22 439.04 585.22 C 447.71 585.44 456.40 585.31 465.05 586.08 C 470.15 586.55 475.40 587.01 480.04 589.36 C 479.60 590.45 479.25 591.81 477.98 592.23 C 468.35 596.17 456.91 590.87 447.88 596.85 C 441.23 601.90 437.27 609.67 434.16 617.25 C 440.37 618.48 446.64 619.61 452.99 619.75 C 458.99 619.97 465.37 620.59 470.45 624.13 C 468.97 629.00 463.51 630.17 459.04 629.43 C 444.39 627.58 429.76 631.96 415.13 629.99 C 413.05 618.88 410.73 607.82 408.41 596.76 C 414.38 593.59 420.33 590.40 426.30 587.22 Z" />
<path fill="#b3b3b3" opacity="1.00" d=" M 446.89 600.54 C 450.55 597.35 455.81 595.14 460.62 596.59 C 467.30 600.04 474.31 603.16 480.05 608.11 C 479.03 609.30 477.65 610.13 476.03 609.85 C 468.85 609.82 462.54 605.86 456.35 602.70 C 453.45 601.12 450.05 601.14 446.89 600.54 Z" />
<path fill="#b3b3b3" opacity="1.00" d=" M 441.97 606.82 C 442.99 605.41 444.00 604.00 445.01 602.60 C 449.15 603.27 453.61 603.34 457.21 605.77 C 461.68 608.71 467.43 609.48 471.12 613.59 C 466.12 614.14 461.20 612.52 456.99 609.94 C 452.48 607.23 447.12 606.74 441.97 606.82 Z" />
<path fill="#b3b3b3" opacity="1.00" d=" M 565.05 631.93 C 573.05 631.59 581.08 630.50 589.08 631.26 C 590.71 631.62 593.32 631.65 593.17 633.95 C 591.61 638.08 586.61 638.11 582.93 637.88 C 573.21 636.80 563.59 639.42 554.38 642.20 C 554.24 642.69 553.97 643.67 553.83 644.17 C 565.18 643.40 576.61 640.22 587.98 642.55 C 592.46 643.39 597.28 644.01 600.92 647.02 C 593.59 653.44 583.14 649.61 574.50 651.69 C 570.06 653.43 565.54 655.10 561.32 657.31 C 561.14 657.75 560.79 658.63 560.61 659.06 C 570.76 658.68 580.97 658.14 591.08 659.55 C 594.66 660.19 598.83 659.37 601.75 662.01 C 598.26 665.10 593.51 665.88 589.09 666.71 C 582.15 667.99 575.08 667.28 568.09 667.57 C 565.82 667.65 563.81 668.81 561.90 669.91 C 560.41 670.84 558.47 671.54 558.06 673.47 C 569.69 674.48 580.26 681.05 592.15 680.53 C 590.20 683.57 586.38 684.53 583.03 685.02 C 573.68 686.02 564.21 685.72 554.96 684.06 C 547.95 684.20 542.24 688.91 536.72 692.69 C 530.90 696.98 524.38 700.26 517.56 702.64 C 516.33 703.02 515.91 704.40 515.23 705.35 C 505.88 721.51 496.35 737.58 486.49 753.44 C 477.48 767.37 469.23 782.41 455.92 792.78 C 454.36 793.31 452.67 793.07 451.06 793.15 C 425.02 792.99 398.97 793.33 372.94 792.98 C 368.88 788.57 366.50 782.68 365.30 776.84 C 358.18 745.98 351.63 714.98 344.97 684.01 C 362.86 663.25 388.26 649.46 415.16 644.68 C 423.67 686.28 430.55 728.21 439.61 769.68 C 441.61 771.97 441.90 768.46 441.31 767.07 C 438.92 755.63 436.69 744.15 434.23 732.72 C 450.77 725.83 467.22 718.35 482.03 708.15 C 495.09 699.24 504.47 686.22 513.58 673.54 C 519.31 665.66 524.41 657.28 530.91 650.00 C 540.45 641.29 551.59 632.56 565.05 631.93 Z" />
<path fill="#b3b3b3" opacity="1.00" d=" M 834.75 644.37 C 846.17 644.43 857.59 644.37 869.01 644.40 C 875.38 644.41 881.76 644.32 888.14 644.48 C 888.31 648.24 888.23 652.00 887.86 655.75 C 879.37 655.69 870.89 655.69 862.41 655.75 C 853.19 655.72 843.97 655.72 834.75 655.74 C 834.74 651.95 834.73 648.15 834.75 644.37 Z" />
<path fill="#b3b3b3" opacity="1.00" d=" M 608.62 739.38 C 612.16 739.36 615.69 739.36 619.24 739.37 C 619.26 744.99 619.26 750.61 619.21 756.23 C 639.13 756.66 659.07 756.21 679.00 756.46 C 681.59 756.54 684.17 756.27 686.70 755.66 L 686.86 755.62 C 689.13 759.72 691.69 763.65 694.09 767.67 C 665.56 767.67 637.02 767.97 608.49 767.53 C 608.60 758.14 608.40 748.76 608.62 739.38 Z" />
<path fill="#b3b3b3" opacity="1.00" d=" M 477.32 783.33 C 478.55 782.52 480.40 782.54 481.65 783.31 C 481.32 784.67 477.66 784.68 477.32 783.33 Z" />
<path fill="#b3b3b3" opacity="1.00" d=" M 487.31 783.17 C 488.77 782.52 492.03 782.04 492.69 783.75 C 491.13 784.34 488.42 784.30 487.31 783.17 Z" />
<path fill="#b3b3b3" opacity="1.00" d=" M 498.32 783.27 C 499.77 782.48 501.52 783.09 503.08 783.25 C 505.03 783.99 501.48 784.53 500.96 784.34 C 499.58 784.54 498.70 784.19 498.32 783.27 Z" />
<path fill="#b3b3b3" opacity="1.00" d=" M 509.32 783.23 C 510.83 782.58 513.52 782.67 514.61 783.81 C 513.18 784.43 509.86 784.96 509.32 783.23 Z" />
<path fill="#b3b3b3" opacity="1.00" d=" M 519.38 783.58 C 520.92 782.63 523.12 782.38 524.78 783.17 C 524.02 784.39 520.18 784.78 519.38 783.58 Z" />
<path fill="#b3b3b3" opacity="1.00" d=" M 530.46 783.35 C 531.83 782.50 533.62 782.71 535.14 783.02 C 536.87 783.93 533.59 784.38 533.01 784.23 C 531.76 784.42 530.91 784.13 530.46 783.35 Z" />
<path fill="#b3b3b3" opacity="1.00" d=" M 541.29 783.23 C 542.73 782.46 544.48 783.08 546.02 783.25 C 547.94 783.95 544.46 784.52 543.95 784.34 C 542.55 784.55 541.67 784.18 541.29 783.23 Z" />
<path fill="#b3b3b3" opacity="1.00" d=" M 552.22 783.51 C 553.84 782.78 555.93 782.49 557.64 783.10 C 556.82 784.48 552.97 784.93 552.22 783.51 Z" />
<path fill="#b3b3b3" opacity="1.00" d=" M 562.34 783.19 C 563.80 782.55 566.99 782.02 567.70 783.74 C 566.17 784.44 563.47 784.27 562.34 783.19 Z" />
<path fill="#b3b3b3" opacity="1.00" d=" M 573.40 783.33 C 574.80 782.52 576.59 782.74 578.13 783.02 C 579.93 783.90 576.59 784.39 576.01 784.21 C 574.74 784.41 573.87 784.12 573.40 783.33 Z" />
<path fill="#b3b3b3" opacity="1.00" d=" M 584.22 783.50 C 585.85 782.73 587.97 782.47 589.68 783.12 C 588.81 784.40 584.99 784.91 584.22 783.50 Z" />
<path fill="#b3b3b3" opacity="1.00" d=" M 595.36 783.33 C 596.58 782.53 598.41 782.52 599.65 783.30 C 599.34 784.68 595.65 784.70 595.36 783.33 Z" />
<path fill="#b3b3b3" opacity="1.00" d=" M 605.40 783.54 C 606.14 782.32 610.16 782.07 610.69 783.72 C 609.09 784.56 607.03 784.02 605.40 783.54 Z" />
<path fill="#b3b3b3" opacity="1.00" d=" M 616.30 783.33 C 617.84 782.33 620.09 782.45 621.74 783.17 C 620.80 784.14 616.99 784.78 616.30 783.33 Z" />
<path fill="#b3b3b3" opacity="1.00" d=" M 627.29 783.34 C 628.81 782.34 631.04 782.46 632.67 783.18 C 631.69 784.17 627.99 784.85 627.29 783.34 Z" />
<path fill="#b3b3b3" opacity="1.00" d=" M 638.33 783.32 C 639.43 782.59 642.14 782.23 642.66 783.66 C 641.56 784.36 638.80 784.75 638.33 783.32 Z" />
<path fill="#b3b3b3" opacity="1.00" d=" M 648.40 783.50 C 650.03 782.97 652.08 782.49 653.71 783.27 C 653.20 784.86 649.03 784.76 648.40 783.50 Z" />
<path fill="#b3b3b3" opacity="1.00" d=" M 659.28 783.27 C 660.91 782.48 663.00 782.96 664.66 783.53 C 663.83 784.72 659.86 784.86 659.28 783.27 Z" />
<path fill="#b3b3b3" opacity="1.00" d=" M 670.34 783.29 C 671.57 782.52 673.39 782.52 674.63 783.31 C 674.32 784.68 670.61 784.68 670.34 783.29 Z" />
<path fill="#b3b3b3" opacity="1.00" d=" M 680.40 783.43 C 682.04 782.94 684.07 782.41 685.69 783.25 C 685.22 784.92 681.15 784.62 680.40 783.43 Z" />
<path fill="#b3b3b3" opacity="1.00" d=" M 691.41 783.34 C 692.78 782.50 694.57 782.72 696.09 783.02 C 697.83 783.89 694.62 784.40 694.04 784.22 C 692.77 784.43 691.90 784.13 691.41 783.34 Z" />
</g>
<g id="#f5ffcbff">
<path fill="#f5ffcb" opacity="1.00" d=" M 423.82 160.83 C 434.23 159.51 444.59 161.77 455.01 161.45 C 462.69 161.96 470.44 162.30 477.96 164.09 C 533.61 171.84 585.86 193.70 637.19 215.51 C 618.82 239.30 608.31 268.86 607.06 298.86 C 668.66 298.84 730.26 298.85 791.87 298.85 C 792.55 299.81 793.25 300.78 793.95 301.74 C 732.16 301.84 670.37 301.71 608.58 301.80 C 608.50 369.03 608.45 436.27 608.60 503.49 C 590.05 503.52 571.49 503.46 552.93 503.52 C 548.83 503.22 545.13 506.84 545.52 510.99 C 545.49 552.57 545.48 594.16 545.52 635.74 C 537.69 640.98 529.76 646.59 524.29 654.42 C 513.89 668.59 504.60 683.69 492.37 696.41 C 483.66 705.48 472.60 711.77 461.61 717.64 C 452.58 722.34 443.29 726.53 433.86 730.35 C 427.98 697.66 422.02 664.98 415.65 632.38 C 429.81 634.05 443.94 630.04 458.11 631.63 C 462.37 632.11 467.40 632.05 470.48 628.58 C 472.07 626.82 473.59 623.60 471.14 621.89 C 466.16 618.43 459.83 617.88 453.96 617.53 C 448.34 617.43 442.78 616.56 437.26 615.57 C 438.29 613.42 439.36 611.30 440.42 609.17 C 445.74 608.91 451.35 609.20 456.03 612.04 C 461.02 615.02 467.01 616.81 472.82 615.65 C 474.04 614.73 473.30 613.21 473.18 611.99 C 475.08 612.02 477.01 612.18 478.90 611.86 C 481.66 611.38 483.17 607.14 480.55 605.51 C 475.90 601.60 470.29 599.06 464.98 596.19 C 470.14 595.88 475.85 596.37 480.38 593.44 C 483.31 591.52 482.09 586.84 478.73 586.25 C 467.55 582.79 455.61 583.45 444.03 583.05 C 437.78 583.12 431.07 582.17 425.29 585.15 C 419.47 588.22 413.72 591.41 407.85 594.38 C 404.25 584.38 412.09 575.02 411.11 565.03 C 410.99 561.99 407.85 560.87 405.94 559.09 C 401.86 555.48 398.01 551.60 394.03 547.88 C 398.73 540.73 407.00 537.39 413.60 532.34 C 413.60 534.82 411.27 539.31 415.01 540.00 C 419.60 540.90 424.37 540.58 428.98 539.89 C 430.08 539.64 432.00 539.50 431.61 537.85 C 431.31 534.77 430.01 531.90 429.09 528.98 C 435.32 533.12 441.56 537.31 448.24 540.70 C 450.33 541.65 452.63 542.84 454.99 542.15 C 460.07 540.88 463.95 537.13 468.10 534.18 C 470.09 532.58 472.46 531.20 473.70 528.88 C 474.82 524.65 471.79 519.63 474.94 515.90 C 478.45 512.36 483.83 514.55 488.12 513.48 C 490.63 511.62 491.64 508.51 493.02 505.83 C 496.63 506.49 500.32 507.56 504.01 506.92 C 506.90 506.35 507.78 503.08 508.43 500.62 C 509.79 493.85 509.70 486.88 509.20 480.03 C 508.97 474.97 506.60 470.00 508.05 464.93 C 510.59 453.46 514.34 441.98 513.35 430.08 C 513.29 425.44 511.84 420.97 511.48 416.40 C 512.85 412.77 514.22 408.88 517.31 406.33 C 521.89 402.12 522.56 395.23 521.39 389.45 C 519.86 383.80 515.47 379.57 511.39 375.63 C 500.76 366.01 488.18 358.76 475.12 352.98 C 454.39 343.93 431.67 338.96 409.00 340.02 C 393.00 340.79 376.95 345.37 363.77 354.66 C 347.51 366.01 336.35 383.61 330.67 402.42 C 330.10 404.11 329.77 406.13 327.98 406.98 C 303.07 422.89 274.34 431.00 247.93 443.87 C 236.59 449.49 224.98 457.47 220.93 470.12 C 216.75 481.26 219.37 494.61 228.14 502.84 C 215.79 509.58 203.82 518.15 196.24 530.25 C 190.78 538.80 189.13 549.76 192.41 559.42 C 195.72 569.67 203.55 577.81 212.33 583.73 C 223.38 591.16 236.14 595.66 249.05 598.63 C 248.59 600.05 248.14 601.46 247.68 602.90 C 247.14 602.19 246.60 601.49 246.07 600.81 C 241.49 605.86 239.08 612.35 236.89 618.69 C 233.50 629.24 231.43 640.16 229.79 651.10 C 229.35 654.32 227.21 657.05 227.07 660.35 L 226.26 659.55 C 227.53 663.05 225.12 665.91 223.03 668.38 C 223.88 666.50 224.79 664.65 225.67 662.79 C 225.90 655.76 228.67 649.05 228.58 641.97 C 228.41 639.70 229.07 636.46 226.80 635.10 C 224.08 634.14 223.61 637.97 223.20 639.84 C 222.15 649.38 222.89 659.11 220.27 668.47 C 219.37 675.58 215.06 681.44 212.54 687.98 C 216.59 682.52 218.23 675.37 223.81 670.99 C 222.68 674.58 222.11 678.64 219.20 681.31 C 216.39 684.14 214.11 687.43 212.34 691.00 C 212.12 689.90 211.32 688.82 211.76 687.69 C 214.32 679.39 215.20 670.71 216.62 662.17 C 217.42 656.37 218.81 650.50 217.88 644.64 C 215.47 644.08 214.38 646.70 213.25 648.30 C 208.90 656.12 210.34 665.45 210.96 673.97 C 212.24 685.18 208.67 696.45 202.61 705.81 C 203.02 706.42 203.44 707.03 203.87 707.66 C 206.73 699.66 211.47 692.20 218.52 687.28 C 216.74 692.00 216.46 697.82 212.18 701.13 C 208.36 704.59 204.78 708.31 201.37 712.19 C 202.55 710.84 201.76 709.46 201.35 708.14 C 200.29 710.20 199.24 712.28 198.14 714.34 C 202.61 702.18 203.77 689.01 202.41 676.17 C 202.04 673.26 201.52 670.07 198.99 668.20 C 195.01 672.86 195.94 679.31 195.97 684.97 C 196.63 697.86 195.83 710.85 193.24 723.51 C 193.91 712.47 194.16 701.34 192.44 690.39 C 191.99 688.51 190.44 685.84 188.16 687.04 C 184.14 690.43 184.92 696.12 185.27 700.78 C 183.73 702.76 182.28 704.80 180.94 706.92 C 181.03 703.58 180.69 700.24 179.56 697.08 C 181.42 692.27 183.86 687.38 183.60 682.10 C 183.47 679.92 181.16 677.90 178.98 678.80 C 175.68 679.91 173.30 682.80 171.92 685.91 C 169.42 691.44 169.47 697.63 168.30 703.50 C 166.92 710.47 164.80 717.27 163.19 724.20 C 162.07 715.72 157.76 707.60 159.41 698.89 C 160.43 686.60 167.76 676.35 172.73 665.46 C 173.72 663.49 174.61 659.51 171.10 660.00 C 164.17 661.27 160.58 668.66 158.97 674.87 C 157.33 683.56 157.29 692.49 157.54 701.31 C 155.30 692.68 151.29 684.17 152.36 675.04 C 153.29 662.60 162.69 652.62 163.74 640.28 C 157.99 641.31 154.73 646.70 152.47 651.58 C 149.75 657.40 149.12 663.89 149.39 670.24 C 148.27 671.67 148.14 673.40 148.28 675.19 C 143.51 666.12 137.36 657.90 131.67 649.41 C 129.29 646.17 127.13 642.55 123.76 640.25 C 123.39 640.25 122.66 640.26 122.29 640.27 C 121.47 645.84 124.13 651.26 127.66 655.42 C 133.49 662.83 142.12 667.71 146.87 676.02 C 152.59 684.72 153.88 695.25 156.75 705.04 C 152.89 695.11 146.70 686.28 139.26 678.70 C 135.45 674.99 131.63 670.62 126.16 669.56 C 115.00 646.14 106.49 621.32 102.48 595.64 C 100.70 574.48 101.26 553.21 101.41 531.99 C 102.55 518.97 102.70 505.86 104.72 492.92 C 105.93 483.72 106.36 474.38 108.45 465.31 C 113.65 432.89 121.83 400.94 133.02 370.05 C 144.82 339.29 159.24 309.36 178.22 282.33 C 186.00 272.14 193.40 261.59 202.30 252.32 C 219.90 232.96 240.29 216.05 262.97 202.97 C 282.49 191.09 304.26 183.67 326.03 177.06 C 351.91 169.82 378.31 163.78 405.15 161.62 C 411.36 161.11 417.64 161.84 423.82 160.83 M 138.57 570.76 C 133.69 574.85 130.46 580.81 129.04 586.98 C 126.76 597.98 128.92 609.33 132.04 619.95 C 133.26 624.49 135.72 628.58 136.77 633.19 C 136.58 623.16 134.88 613.12 135.74 603.05 C 135.99 592.70 141.10 583.28 141.96 573.05 C 142.66 570.94 140.20 568.88 138.57 570.76 M 114.45 588.24 C 113.84 592.18 115.04 596.05 116.30 599.74 C 121.19 613.72 129.56 626.11 137.70 638.36 C 138.71 639.57 138.15 642.33 139.76 642.83 C 138.92 634.83 141.70 627.16 145.11 620.08 C 147.30 614.43 150.86 608.92 150.56 602.65 C 148.82 602.96 146.97 603.42 145.86 604.91 C 142.20 609.13 140.44 614.61 139.12 619.94 C 137.72 625.06 138.35 630.53 136.38 635.53 C 135.37 631.58 133.40 627.99 131.98 624.20 C 128.10 614.68 124.78 604.93 120.44 595.60 C 119.00 592.79 117.69 589.37 114.45 588.24 M 151.15 629.17 C 145.27 635.95 141.61 645.14 143.42 654.17 C 142.64 651.51 141.88 648.84 140.96 646.24 C 140.80 645.74 140.49 644.74 140.33 644.24 C 140.17 644.64 139.86 645.45 139.70 645.85 C 135.81 639.44 132.14 632.60 126.39 627.64 C 125.23 626.28 123.56 626.91 122.10 627.20 C 122.42 632.49 126.76 636.18 129.93 640.01 C 136.68 647.30 142.26 655.78 145.99 665.00 C 145.55 659.95 145.26 654.72 146.93 649.84 C 149.26 642.83 154.73 637.60 158.53 631.43 C 159.58 629.83 160.49 626.85 158.02 626.09 C 155.27 625.11 152.86 627.31 151.15 629.17 Z" />
<path fill="#f5ffcb" opacity="1.00" d=" M 622.75 284.78 C 625.76 261.58 635.74 239.38 650.44 221.23 C 658.01 223.97 664.79 228.90 672.82 230.31 C 673.74 230.50 674.41 231.21 675.15 231.77 C 695.72 249.54 716.66 266.88 737.13 284.75 C 699.00 284.80 660.87 284.73 622.75 284.78 Z" />
<path fill="#f5ffcb" opacity="1.00" d=" M 727.91 257.77 C 733.90 259.77 739.07 263.43 744.47 266.60 C 744.48 268.37 744.46 270.14 744.46 271.92 C 738.65 267.58 733.04 262.90 727.91 257.77 Z" />
<path fill="#f5ffcb" opacity="1.00" d=" M 619.25 313.26 C 662.72 313.19 706.19 313.17 749.66 313.28 C 749.66 347.49 749.61 381.70 749.68 415.92 C 706.20 416.11 662.71 416.07 619.23 415.94 C 619.29 381.71 619.23 347.49 619.25 313.26 Z" />
<path fill="#f5ffcb" opacity="1.00" d=" M 760.28 313.24 C 776.44 313.20 792.61 313.20 808.78 313.23 C 814.98 319.37 821.25 325.45 826.98 332.03 C 839.05 343.16 848.22 356.84 858.09 369.83 C 862.78 375.94 865.10 383.43 869.36 389.80 C 874.89 397.86 878.41 407.04 882.21 415.99 C 841.54 416.03 800.88 416.09 760.21 415.96 C 760.27 381.72 760.15 347.48 760.28 313.24 Z" />
<path fill="#f5ffcb" opacity="1.00" d=" M 619.28 427.36 C 662.73 427.38 706.19 427.36 749.64 427.37 C 749.69 452.74 749.58 478.12 749.70 503.50 C 706.19 503.49 662.68 503.50 619.17 503.50 C 619.37 478.12 619.16 452.74 619.28 427.36 Z" />
<path fill="#f5ffcb" opacity="1.00" d=" M 760.28 427.35 C 802.31 427.34 844.34 427.47 886.38 427.28 C 887.26 428.83 888.04 430.44 888.53 432.17 C 888.48 488.39 888.64 544.59 888.50 600.80 C 883.20 615.84 876.88 630.52 869.01 644.40 C 857.59 644.37 846.17 644.43 834.75 644.37 C 834.78 609.72 834.76 575.07 834.75 540.43 C 852.55 540.47 870.35 540.58 888.15 540.37 C 888.27 536.66 888.27 532.94 888.13 529.23 C 870.34 529.02 852.55 529.20 834.75 529.13 C 834.65 522.53 835.00 515.91 834.62 509.32 C 834.28 505.62 830.50 503.25 827.00 503.51 C 804.71 503.48 782.42 503.51 760.13 503.50 C 760.38 478.12 760.10 452.73 760.28 427.35 Z" />
<path fill="#f5ffcb" opacity="1.00" d=" M 899.30 474.86 C 904.49 491.38 903.97 508.91 903.75 526.02 C 903.84 533.13 902.55 540.15 901.54 547.15 C 899.97 551.39 901.31 556.17 899.32 560.25 C 899.19 531.79 899.23 503.32 899.30 474.86 Z" />
<path fill="#f5ffcb" opacity="1.00" d=" M 834.75 655.74 C 843.97 655.72 853.19 655.72 862.41 655.75 C 860.13 660.19 857.36 664.35 854.53 668.46 C 848.30 677.12 843.50 687.15 834.79 693.70 C 834.73 681.05 834.78 668.39 834.75 655.74 Z" />
<path fill="#f5ffcb" opacity="1.00" d=" M 136.17 685.67 C 142.03 691.25 147.37 697.37 152.14 703.90 C 154.71 707.44 157.47 710.93 159.16 715.02 C 153.49 705.85 144.97 699.11 137.40 691.62 C 136.91 689.65 136.51 687.66 136.17 685.67 Z" />
<path fill="#f5ffcb" opacity="1.00" d=" M 538.36 694.34 C 540.64 692.67 542.97 691.06 545.49 689.78 C 545.52 703.86 545.46 717.94 545.51 732.02 C 545.17 736.09 548.86 739.76 552.95 739.37 C 571.50 739.39 590.06 739.36 608.62 739.38 C 608.40 748.76 608.60 758.14 608.49 767.53 C 637.02 767.97 665.56 767.67 694.09 767.67 C 695.82 770.40 697.49 773.17 699.18 775.93 C 676.32 780.11 652.77 778.55 630.16 773.64 C 613.02 769.89 596.02 765.52 579.11 760.84 C 560.66 757.02 541.98 752.92 523.01 753.91 C 510.49 754.73 498.25 757.74 485.77 758.95 C 496.89 741.13 507.68 723.11 518.15 704.90 C 525.36 702.40 532.21 698.85 538.36 694.34 Z" />
<path fill="#f5ffcb" opacity="1.00" d=" M 195.62 722.74 C 198.96 715.47 205.66 710.52 212.34 706.54 C 210.81 711.57 209.11 716.56 207.55 721.59 C 201.72 725.75 195.56 729.39 189.55 733.27 C 191.67 729.81 193.80 726.36 195.62 722.74 Z" />
<path fill="#f5ffcb" opacity="1.00" d=" M 164.56 725.15 C 166.65 721.79 168.66 718.37 170.53 714.89 C 171.46 717.27 172.45 719.62 173.52 721.95 C 172.23 724.62 170.89 727.27 169.40 729.84 C 167.77 728.28 166.16 726.72 164.56 725.15 Z" />
<path fill="#f5ffcb" opacity="1.00" d=" M 180.12 722.97 C 182.23 719.81 185.21 717.30 187.62 714.36 C 188.41 720.78 187.93 727.30 186.43 733.59 C 185.59 736.15 183.71 738.18 182.22 740.40 C 182.00 734.53 180.32 728.82 180.12 722.97 Z" />
<path fill="#f5ffcb" opacity="1.00" d=" M 170.74 731.40 C 172.46 729.84 174.18 728.29 175.91 726.75 C 177.80 730.81 179.46 735.03 180.08 739.50 C 176.45 737.44 173.44 734.53 170.74 731.40 Z" />
<path fill="#f5ffcb" opacity="1.00" d=" M 190.82 734.74 C 195.51 733.53 200.12 732.05 204.69 730.43 C 203.92 732.73 203.18 735.06 202.42 737.38 C 195.95 739.53 189.70 743.15 182.70 742.92 C 185.17 740.06 186.48 735.21 190.82 734.74 Z" />
<path fill="#f5ffcb" opacity="1.00" d=" M 619.24 739.37 C 638.39 739.38 657.55 739.36 676.71 739.38 C 680.09 744.77 683.41 750.21 686.70 755.66 C 684.17 756.27 681.59 756.54 679.00 756.46 C 659.07 756.21 639.13 756.66 619.21 756.23 C 619.26 750.61 619.26 744.99 619.24 739.37 Z" />
<path fill="#f5ffcb" opacity="1.00" d=" M 745.31 739.32 C 758.96 739.58 772.61 739.24 786.26 739.39 C 781.49 742.98 776.81 746.74 771.55 749.60 C 767.70 751.69 763.91 753.87 760.29 756.34 C 760.17 750.78 760.26 745.22 760.19 739.67 C 756.74 739.58 753.30 739.57 749.87 739.64 C 749.66 741.66 749.47 743.70 749.25 745.74 C 747.93 743.59 746.62 741.45 745.31 739.32 Z" />
<path fill="#f5ffcb" opacity="1.00" d=" M 185.14 743.86 C 190.20 743.76 195.26 743.92 200.33 743.89 C 199.68 745.87 199.03 747.84 198.36 749.83 C 195.99 749.58 193.55 749.53 191.29 748.74 C 188.79 747.77 187.07 745.60 185.14 743.86 Z" />
</g>
<g id="#273238ff">
<path fill="#273238" opacity="1.00" d=" M 363.77 354.66 C 376.95 345.37 393.00 340.79 409.00 340.02 C 431.67 338.96 454.39 343.93 475.12 352.98 C 488.18 358.76 500.76 366.01 511.39 375.63 C 515.47 379.57 519.86 383.80 521.39 389.45 C 522.56 395.23 521.89 402.12 517.31 406.33 C 514.22 408.88 512.85 412.77 511.48 416.40 C 511.84 420.97 513.29 425.44 513.35 430.08 C 514.34 441.98 510.59 453.46 508.05 464.93 C 506.60 470.00 508.97 474.97 509.20 480.03 C 509.70 486.88 509.79 493.85 508.43 500.62 C 507.78 503.08 506.90 506.35 504.01 506.92 C 500.32 507.56 496.63 506.49 493.02 505.83 C 491.64 508.51 490.63 511.62 488.12 513.48 C 483.83 514.55 478.45 512.36 474.94 515.90 C 471.79 519.63 474.82 524.65 473.70 528.88 C 472.46 531.20 470.09 532.58 468.10 534.18 C 463.95 537.13 460.07 540.88 454.99 542.15 C 452.63 542.84 450.33 541.65 448.24 540.70 C 441.56 537.31 435.32 533.12 429.09 528.98 C 430.01 531.90 431.31 534.77 431.61 537.85 C 432.00 539.50 430.08 539.64 428.98 539.89 C 424.37 540.58 419.60 540.90 415.01 540.00 C 411.27 539.31 413.60 534.82 413.60 532.34 C 407.00 537.39 398.73 540.73 394.03 547.88 C 398.01 551.60 401.86 555.48 405.94 559.09 C 407.85 560.87 410.99 561.99 411.11 565.03 C 412.09 575.02 404.25 584.38 407.85 594.38 C 413.72 591.41 419.47 588.22 425.29 585.15 C 431.07 582.17 437.78 583.12 444.03 583.05 C 455.61 583.45 467.55 582.79 478.73 586.25 C 482.09 586.84 483.31 591.52 480.38 593.44 C 475.85 596.37 470.14 595.88 464.98 596.19 C 470.29 599.06 475.90 601.60 480.55 605.51 C 483.17 607.14 481.66 611.38 478.90 611.86 C 477.01 612.18 475.08 612.02 473.18 611.99 C 473.30 613.21 474.04 614.73 472.82 615.65 C 467.01 616.81 461.02 615.02 456.03 612.04 C 451.35 609.20 445.74 608.91 440.42 609.17 C 439.36 611.30 438.29 613.42 437.26 615.57 C 442.78 616.56 448.34 617.43 453.96 617.53 C 459.83 617.88 466.16 618.43 471.14 621.89 C 473.59 623.60 472.07 626.82 470.48 628.58 C 467.40 632.05 462.37 632.11 458.11 631.63 C 443.94 630.04 429.81 634.05 415.65 632.38 C 422.02 664.98 427.98 697.66 433.86 730.35 C 443.29 726.53 452.58 722.34 461.61 717.64 C 472.60 711.77 483.66 705.48 492.37 696.41 C 504.60 683.69 513.89 668.59 524.29 654.42 C 529.76 646.59 537.69 640.98 545.52 635.74 C 545.48 594.16 545.49 552.57 545.52 510.99 C 545.13 506.84 548.83 503.22 552.93 503.52 C 571.49 503.46 590.05 503.52 608.60 503.49 C 612.12 503.50 615.65 503.51 619.17 503.50 C 662.68 503.50 706.19 503.49 749.70 503.50 C 753.17 503.51 756.65 503.50 760.13 503.50 C 782.42 503.51 804.71 503.48 827.00 503.51 C 830.50 503.25 834.28 505.62 834.62 509.32 C 835.00 515.91 834.65 522.53 834.75 529.13 C 834.74 532.90 834.73 536.66 834.75 540.43 C 834.76 575.07 834.78 609.72 834.75 644.37 C 834.73 648.15 834.74 651.95 834.75 655.74 C 834.78 668.39 834.73 681.05 834.79 693.70 C 834.69 706.49 834.81 719.29 834.74 732.09 C 835.02 735.86 831.82 739.47 827.97 739.33 C 814.07 739.47 800.16 739.32 786.26 739.39 C 772.61 739.24 758.96 739.58 745.31 739.32 C 746.62 741.45 747.93 743.59 749.25 745.74 C 753.95 753.31 758.69 760.87 763.33 768.48 C 765.60 772.25 768.22 775.82 770.21 779.75 C 772.30 784.43 770.39 789.90 766.66 793.15 C 795.43 793.06 824.19 793.17 852.96 793.10 C 854.47 793.13 857.64 792.55 856.61 795.23 C 797.43 795.59 738.23 795.27 679.04 795.38 C 579.69 795.38 480.35 795.38 381.00 795.38 C 295.58 795.30 210.14 795.54 124.72 795.27 L 124.21 794.03 L 124.86 793.23 C 134.04 792.94 143.25 793.22 152.44 793.11 C 150.62 781.94 148.80 770.78 147.00 759.61 C 144.67 759.62 142.34 759.62 140.02 759.64 C 139.98 756.33 139.99 753.03 140.00 749.74 C 147.81 749.71 155.61 749.78 163.42 749.70 C 163.41 745.52 163.63 741.29 162.87 737.17 C 156.22 730.15 146.42 728.11 137.97 724.12 C 132.37 721.55 126.95 717.17 125.47 710.92 C 124.85 708.33 125.87 704.62 128.99 704.39 C 132.56 704.13 135.46 706.80 137.69 709.27 C 142.89 715.34 147.43 722.14 153.95 726.92 C 157.01 729.14 159.90 731.57 162.70 734.11 C 162.17 731.18 162.36 727.95 160.60 725.41 C 157.60 720.54 154.13 715.89 149.66 712.27 C 143.97 707.29 137.18 703.49 132.38 697.56 C 131.01 695.32 129.32 691.53 131.87 689.60 C 133.92 689.37 135.92 690.23 137.40 691.62 C 144.97 699.11 153.49 705.85 159.16 715.02 C 157.47 710.93 154.71 707.44 152.14 703.90 C 147.37 697.37 142.03 691.25 136.17 685.67 C 132.21 680.89 125.21 676.62 126.16 669.56 C 131.63 670.62 135.45 674.99 139.26 678.70 C 146.70 686.28 152.89 695.11 156.75 705.04 C 153.88 695.25 152.59 684.72 146.87 676.02 C 142.12 667.71 133.49 662.83 127.66 655.42 C 124.13 651.26 121.47 645.84 122.29 640.27 C 122.66 640.26 123.39 640.25 123.76 640.25 C 127.13 642.55 129.29 646.17 131.67 649.41 C 137.36 657.90 143.51 666.12 148.28 675.19 C 148.14 673.40 148.27 671.67 149.39 670.24 C 149.12 663.89 149.75 657.40 152.47 651.58 C 154.73 646.70 157.99 641.31 163.74 640.28 C 162.69 652.62 153.29 662.60 152.36 675.04 C 151.29 684.17 155.30 692.68 157.54 701.31 C 157.29 692.49 157.33 683.56 158.97 674.87 C 160.58 668.66 164.17 661.27 171.10 660.00 C 174.61 659.51 173.72 663.49 172.73 665.46 C 167.76 676.35 160.43 686.60 159.41 698.89 C 157.76 707.60 162.07 715.72 163.19 724.20 C 164.80 717.27 166.92 710.47 168.30 703.50 C 169.47 697.63 169.42 691.44 171.92 685.91 C 173.30 682.80 175.68 679.91 178.98 678.80 C 181.16 677.90 183.47 679.92 183.60 682.10 C 183.86 687.38 181.42 692.27 179.56 697.08 C 180.69 700.24 181.03 703.58 180.94 706.92 C 182.28 704.80 183.73 702.76 185.27 700.78 C 184.92 696.12 184.14 690.43 188.16 687.04 C 190.44 685.84 191.99 688.51 192.44 690.39 C 194.16 701.34 193.91 712.47 193.24 723.51 C 195.83 710.85 196.63 697.86 195.97 684.97 C 195.94 679.31 195.01 672.86 198.99 668.20 C 201.52 670.07 202.04 673.26 202.41 676.17 C 203.77 689.01 202.61 702.18 198.14 714.34 C 199.24 712.28 200.29 710.20 201.35 708.14 C 201.76 709.46 202.55 710.84 201.37 712.19 C 204.78 708.31 208.36 704.59 212.18 701.13 C 216.46 697.82 216.74 692.00 218.52 687.28 C 211.47 692.20 206.73 699.66 203.87 707.66 C 203.44 707.03 203.02 706.42 202.61 705.81 C 208.67 696.45 212.24 685.18 210.96 673.97 C 210.34 665.45 208.90 656.12 213.25 648.30 C 214.38 646.70 215.47 644.08 217.88 644.64 C 218.81 650.50 217.42 656.37 216.62 662.17 C 215.20 670.71 214.32 679.39 211.76 687.69 C 211.32 688.82 212.12 689.90 212.34 691.00 C 214.11 687.43 216.39 684.14 219.20 681.31 C 222.11 678.64 222.68 674.58 223.81 670.99 C 218.23 675.37 216.59 682.52 212.54 687.98 C 215.06 681.44 219.37 675.58 220.27 668.47 C 222.89 659.11 222.15 649.38 223.20 639.84 C 223.61 637.97 224.08 634.14 226.80 635.10 C 229.07 636.46 228.41 639.70 228.58 641.97 C 228.67 649.05 225.90 655.76 225.67 662.79 C 224.79 664.65 223.88 666.50 223.03 668.38 C 225.12 665.91 227.53 663.05 226.26 659.55 L 227.07 660.35 C 227.21 657.05 229.35 654.32 229.79 651.10 C 231.43 640.16 233.50 629.24 236.89 618.69 C 239.08 612.35 241.49 605.86 246.07 600.81 C 246.60 601.49 247.14 602.19 247.68 602.90 C 248.14 601.46 248.59 600.05 249.05 598.63 C 236.14 595.66 223.38 591.16 212.33 583.73 C 203.55 577.81 195.72 569.67 192.41 559.42 C 189.13 549.76 190.78 538.80 196.24 530.25 C 203.82 518.15 215.79 509.58 228.14 502.84 C 219.37 494.61 216.75 481.26 220.93 470.12 C 224.98 457.47 236.59 449.49 247.93 443.87 C 274.34 431.00 303.07 422.89 327.98 406.98 C 329.77 406.13 330.10 404.11 330.67 402.42 C 336.35 383.61 347.51 366.01 363.77 354.66 M 355.28 395.30 C 358.24 396.15 361.29 397.15 363.68 399.19 C 365.61 400.78 366.65 403.24 368.81 404.58 C 371.98 402.62 375.91 400.98 377.11 397.10 C 379.40 391.30 374.88 384.76 368.97 383.84 C 362.06 382.03 354.22 387.91 355.28 395.30 M 496.72 435.88 C 501.87 435.23 507.44 436.34 511.03 440.35 C 511.49 433.40 511.07 426.41 509.68 419.58 C 505.72 425.29 501.71 431.01 496.72 435.88 M 492.70 443.81 C 491.67 445.62 489.74 444.27 488.57 443.47 C 476.73 453.54 462.39 459.73 448.64 466.63 C 426.14 478.25 403.57 490.62 385.07 508.15 C 381.26 511.65 376.73 514.34 371.72 515.68 C 370.51 518.20 369.24 520.68 367.90 523.13 C 376.06 530.83 384.06 538.72 392.43 546.20 C 397.86 538.19 407.44 534.74 414.66 528.72 C 416.38 523.89 417.67 518.92 419.48 514.13 C 421.18 509.71 420.32 504.91 420.47 500.30 C 418.58 499.41 416.48 498.44 415.62 496.39 C 413.71 492.76 415.97 487.77 420.02 486.96 C 424.66 485.50 429.58 490.33 428.21 495.01 C 427.72 497.78 425.16 499.29 422.79 500.29 C 422.81 504.20 422.58 508.13 422.86 512.04 C 423.74 515.85 425.56 519.38 426.84 523.07 C 427.62 526.05 430.77 527.16 433.01 528.85 C 439.47 532.84 445.68 537.56 452.92 540.05 C 457.56 539.89 461.13 536.35 464.73 533.80 C 467.07 531.84 470.11 530.44 471.67 527.74 C 471.97 524.08 470.31 520.28 471.79 516.72 C 474.19 510.41 481.88 511.70 487.17 511.31 C 489.38 509.07 490.28 505.97 491.51 503.16 C 495.29 503.82 499.05 505.09 502.94 504.79 C 505.42 504.55 505.75 501.45 506.33 499.54 C 508.02 489.78 507.40 479.70 505.28 470.06 C 505.73 460.62 509.47 451.70 510.74 442.35 C 509.85 442.73 508.95 443.11 508.07 443.50 C 503.88 439.76 496.29 438.87 492.70 443.81 M 420.14 489.32 C 417.52 490.17 416.32 493.73 418.04 495.94 C 419.69 498.64 424.09 498.41 425.51 495.59 C 427.74 492.31 423.70 487.67 420.14 489.32 M 822.81 505.66 C 824.84 509.12 824.18 513.19 824.25 517.02 C 824.25 588.70 824.24 660.37 824.26 732.05 C 824.40 733.89 823.53 735.56 822.80 737.20 C 826.04 736.99 830.74 737.99 832.20 734.08 C 832.83 730.75 832.36 727.32 832.50 723.96 C 832.46 652.67 832.57 581.38 832.44 510.10 C 832.10 505.26 826.33 505.61 822.81 505.66 M 559.37 515.13 C 559.41 553.52 559.40 591.90 559.38 630.29 C 569.04 629.18 578.80 628.61 588.53 628.82 C 588.73 624.92 587.82 620.81 589.20 617.07 C 600.80 589.64 612.43 562.23 623.98 534.78 C 631.14 534.69 638.32 534.78 645.49 534.73 C 645.53 562.77 645.50 590.82 645.50 618.86 C 648.57 618.87 651.64 618.87 654.72 618.85 C 654.79 624.85 654.74 630.85 654.75 636.85 C 651.67 636.88 648.59 636.88 645.51 636.88 C 645.50 644.38 645.50 651.88 645.51 659.39 C 639.05 659.37 632.58 659.38 626.12 659.38 C 626.11 651.88 626.13 644.38 626.11 636.88 C 615.50 636.93 604.89 636.77 594.28 636.96 C 592.52 638.72 590.23 639.73 587.83 640.30 C 592.53 641.08 597.61 641.69 601.55 644.60 C 603.66 646.17 602.57 649.35 600.48 650.39 C 593.96 654.21 586.10 652.98 578.90 653.34 C 575.32 653.29 572.16 655.09 568.95 656.40 C 579.34 656.04 589.73 656.83 600.01 658.30 C 602.42 658.65 604.67 661.61 602.93 663.84 C 600.30 666.75 596.17 667.44 592.54 668.38 C 584.81 670.25 576.83 669.62 568.97 669.78 C 566.95 669.68 565.18 670.71 563.49 671.67 C 570.02 673.70 576.55 675.81 583.20 677.44 C 586.60 678.31 590.21 677.72 593.57 678.73 C 595.10 679.33 594.36 681.36 594.45 682.59 C 666.45 682.37 738.46 682.57 810.47 682.49 C 810.53 626.70 810.48 570.92 810.49 515.14 C 726.78 515.10 643.08 515.13 559.37 515.13 M 421.36 515.34 C 419.11 522.77 416.30 530.07 415.02 537.76 C 419.80 538.61 424.67 538.28 429.44 537.54 C 427.19 529.98 424.27 522.66 421.36 515.34 M 354.60 536.48 C 352.00 537.46 349.24 536.83 346.70 536.04 C 344.15 549.51 340.37 563.11 332.76 574.67 C 322.07 589.15 304.61 597.15 287.23 600.16 C 259.36 664.18 232.49 728.63 205.70 793.11 C 232.83 793.13 259.97 793.14 287.11 793.11 C 300.43 733.44 313.92 673.74 330.99 615.01 C 335.70 599.55 340.28 583.94 347.24 569.31 C 349.28 565.45 351.38 560.70 356.00 559.46 C 371.24 554.92 387.52 556.64 402.91 559.54 C 390.90 548.02 378.73 536.67 366.69 525.19 C 363.61 529.76 360.01 534.59 354.60 536.48 M 354.57 562.59 C 352.15 564.58 350.77 567.52 349.32 570.23 C 344.68 579.81 341.32 589.94 338.01 600.03 C 330.94 622.08 324.96 644.45 319.18 666.87 C 308.49 708.76 298.73 750.90 289.48 793.14 C 316.26 793.17 343.05 793.12 369.83 793.16 C 367.16 788.93 364.52 784.53 363.59 779.54 C 353.77 736.78 344.64 693.85 335.73 650.89 C 335.05 646.50 333.55 642.18 333.53 637.74 L 335.16 637.03 C 337.51 647.59 339.48 658.24 341.80 668.81 C 361.00 649.23 385.70 634.78 412.67 629.22 C 409.52 612.86 406.16 596.54 402.38 580.32 C 400.83 573.60 398.91 566.95 396.10 560.64 C 386.20 559.00 376.07 558.49 366.09 559.58 C 362.17 560.18 358.15 560.82 354.57 562.59 M 606.62 618.87 C 613.12 618.87 619.63 618.88 626.13 618.86 C 626.03 603.68 626.28 588.49 626.00 573.31 C 619.27 588.37 613.12 603.70 606.62 618.87 M 426.30 587.22 C 420.33 590.40 414.38 593.59 408.41 596.76 C 410.73 607.82 413.05 618.88 415.13 629.99 C 429.76 631.96 444.39 627.58 459.04 629.43 C 463.51 630.17 468.97 629.00 470.45 624.13 C 465.37 620.59 458.99 619.97 452.99 619.75 C 446.64 619.61 440.37 618.48 434.16 617.25 C 437.27 609.67 441.23 601.90 447.88 596.85 C 456.91 590.87 468.35 596.17 477.98 592.23 C 479.25 591.81 479.60 590.45 480.04 589.36 C 475.40 587.01 470.15 586.55 465.05 586.08 C 456.40 585.31 447.71 585.44 439.04 585.22 C 434.75 585.22 430.18 585.10 426.30 587.22 M 446.89 600.54 C 450.05 601.14 453.45 601.12 456.35 602.70 C 462.54 605.86 468.85 609.82 476.03 609.85 C 477.65 610.13 479.03 609.30 480.05 608.11 C 474.31 603.16 467.30 600.04 460.62 596.59 C 455.81 595.14 450.55 597.35 446.89 600.54 M 251.38 599.24 C 235.40 641.10 222.18 683.93 208.35 726.53 C 201.58 747.17 195.28 768.01 187.13 788.17 C 186.60 789.76 186.31 791.41 186.01 793.07 C 191.75 792.85 197.82 793.85 203.35 792.60 C 230.17 728.47 256.79 664.23 284.59 600.51 C 273.54 602.03 262.31 601.24 251.38 599.24 M 441.97 606.82 C 447.12 606.74 452.48 607.23 456.99 609.94 C 461.20 612.52 466.12 614.14 471.12 613.59 C 467.43 609.48 461.68 608.71 457.21 605.77 C 453.61 603.34 449.15 603.27 445.01 602.60 C 444.00 604.00 442.99 605.41 441.97 606.82 M 565.05 631.93 C 551.59 632.56 540.45 641.29 530.91 650.00 C 524.41 657.28 519.31 665.66 513.58 673.54 C 504.47 686.22 495.09 699.24 482.03 708.15 C 467.22 718.35 450.77 725.83 434.23 732.72 C 436.69 744.15 438.92 755.63 441.31 767.07 C 441.90 768.46 441.61 771.97 439.61 769.68 C 430.55 728.21 423.67 686.28 415.16 644.68 C 388.26 649.46 362.86 663.25 344.97 684.01 C 351.63 714.98 358.18 745.98 365.30 776.84 C 366.50 782.68 368.88 788.57 372.94 792.98 C 398.97 793.33 425.02 792.99 451.06 793.15 C 452.67 793.07 454.36 793.31 455.92 792.78 C 469.23 782.41 477.48 767.37 486.49 753.44 C 496.35 737.58 505.88 721.51 515.23 705.35 C 515.91 704.40 516.33 703.02 517.56 702.64 C 524.38 700.26 530.90 696.98 536.72 692.69 C 542.24 688.91 547.95 684.20 554.96 684.06 C 564.21 685.72 573.68 686.02 583.03 685.02 C 586.38 684.53 590.20 683.57 592.15 680.53 C 580.26 681.05 569.69 674.48 558.06 673.47 C 558.47 671.54 560.41 670.84 561.90 669.91 C 563.81 668.81 565.82 667.65 568.09 667.57 C 575.08 667.28 582.15 667.99 589.09 666.71 C 593.51 665.88 598.26 665.10 601.75 662.01 C 598.83 659.37 594.66 660.19 591.08 659.55 C 580.97 658.14 570.76 658.68 560.61 659.06 C 560.79 658.63 561.14 657.75 561.32 657.31 C 565.54 655.10 570.06 653.43 574.50 651.69 C 583.14 649.61 593.59 653.44 600.92 647.02 C 597.28 644.01 592.46 643.39 587.98 642.55 C 576.61 640.22 565.18 643.40 553.83 644.17 C 553.97 643.67 554.24 642.69 554.38 642.20 C 563.59 639.42 573.21 636.80 582.93 637.88 C 586.61 638.11 591.61 638.08 593.17 633.95 C 593.32 631.65 590.71 631.62 589.08 631.26 C 581.08 630.50 573.05 631.59 565.05 631.93 M 538.36 694.34 C 532.21 698.85 525.36 702.40 518.15 704.90 C 507.68 723.11 496.89 741.13 485.77 758.95 C 477.97 771.08 470.42 783.69 459.28 793.13 C 462.93 793.12 466.59 793.11 470.24 793.13 C 470.23 790.21 470.24 787.30 470.33 784.39 C 471.65 784.31 472.98 784.24 474.32 784.19 C 474.36 783.47 474.46 782.03 474.51 781.31 C 477.84 781.21 481.17 781.21 484.50 781.28 C 484.40 782.06 484.21 783.62 484.11 784.39 C 484.49 783.38 484.92 782.38 485.40 781.42 C 488.59 781.05 491.82 781.29 495.03 781.27 C 495.19 782.29 495.35 783.33 495.52 784.37 C 495.70 783.63 496.04 782.14 496.22 781.39 C 499.40 781.11 502.61 781.13 505.80 781.39 C 506.15 782.37 506.47 783.38 506.75 784.40 C 506.74 783.62 506.71 782.07 506.70 781.29 C 510.03 781.22 513.37 781.19 516.71 781.37 C 516.80 782.26 516.91 783.15 517.05 784.06 C 517.25 783.38 517.65 782.02 517.85 781.33 C 520.90 781.11 523.97 781.26 527.04 781.27 C 527.22 782.37 527.41 783.48 527.62 784.60 C 527.67 783.86 527.79 782.39 527.85 781.65 C 531.10 780.83 534.51 781.36 537.83 781.28 C 538.08 782.28 538.34 783.29 538.60 784.31 C 538.72 783.57 538.96 782.09 539.08 781.36 C 542.28 781.17 545.52 781.04 548.72 781.44 C 549.13 782.35 549.46 783.31 549.72 784.31 C 549.73 783.55 549.76 782.03 549.78 781.27 C 553.02 781.29 556.29 781.02 559.52 781.48 C 559.63 782.14 559.85 783.45 559.96 784.11 C 560.07 783.17 560.18 782.25 560.30 781.34 C 563.61 781.21 566.93 781.22 570.25 781.29 C 570.25 782.05 570.25 783.58 570.25 784.34 C 570.50 783.34 570.80 782.37 571.12 781.42 C 574.37 781.12 577.65 781.13 580.90 781.38 C 581.22 782.38 581.52 783.39 581.78 784.42 C 581.79 783.64 581.82 782.06 581.83 781.28 C 585.08 781.33 588.37 780.96 591.60 781.46 C 592.06 782.41 592.49 783.39 592.90 784.39 C 592.80 783.61 592.60 782.05 592.50 781.26 C 595.76 781.24 599.02 781.24 602.29 781.26 C 602.31 782.06 602.35 783.67 602.37 784.47 C 602.49 783.74 602.73 782.28 602.85 781.55 C 606.28 781.11 609.76 781.08 613.21 781.43 C 613.24 782.16 613.31 783.64 613.35 784.37 C 613.57 783.34 613.80 782.33 614.04 781.32 C 617.28 781.27 620.54 781.05 623.77 781.41 C 623.96 782.14 624.34 783.61 624.53 784.35 C 624.60 783.58 624.74 782.04 624.81 781.28 C 628.12 781.22 631.42 781.20 634.73 781.38 C 634.82 782.30 634.91 783.23 635.01 784.17 C 635.13 783.49 635.37 782.12 635.50 781.43 C 638.71 781.07 641.96 781.27 645.19 781.28 C 645.26 782.09 645.39 783.70 645.46 784.51 C 645.59 783.79 645.86 782.34 645.99 781.62 C 649.29 780.83 652.73 781.35 656.09 781.31 C 656.22 782.13 656.48 783.77 656.61 784.58 C 656.71 783.76 656.90 782.10 657.00 781.27 C 660.37 781.42 663.89 780.74 667.17 781.71 C 667.24 782.41 667.39 783.81 667.46 784.51 C 667.56 783.71 667.76 782.09 667.86 781.29 C 671.09 781.33 674.37 780.94 677.57 781.54 C 677.67 782.18 677.85 783.46 677.95 784.10 C 678.06 783.19 678.16 782.28 678.25 781.39 C 681.54 781.19 684.83 781.21 688.13 781.28 C 688.20 782.04 688.34 783.58 688.41 784.34 C 688.60 783.59 688.99 782.10 689.18 781.35 C 692.42 781.10 695.69 781.27 698.95 781.28 C 699.01 782.02 699.14 783.50 699.20 784.23 C 700.10 784.24 701.90 784.25 702.80 784.26 C 702.51 781.14 700.89 778.45 699.18 775.93 C 697.49 773.17 695.82 770.40 694.09 767.67 C 691.69 763.65 689.13 759.72 686.86 755.62 L 686.70 755.66 C 683.41 750.21 680.09 744.77 676.71 739.38 C 657.55 739.36 638.39 739.38 619.24 739.37 C 615.69 739.36 612.16 739.36 608.62 739.38 C 590.06 739.36 571.50 739.39 552.95 739.37 C 548.86 739.76 545.17 736.09 545.51 732.02 C 545.46 717.94 545.52 703.86 545.49 689.78 C 542.97 691.06 540.64 692.67 538.36 694.34 M 547.72 697.54 C 547.80 709.03 547.68 720.53 547.77 732.03 C 547.55 734.91 550.15 737.41 553.03 737.10 C 640.69 737.15 728.35 737.08 816.01 737.13 C 819.01 737.64 822.36 735.31 821.98 732.07 C 821.99 720.54 822.05 708.99 821.94 697.46 C 730.54 697.59 639.13 697.43 547.72 697.54 M 195.62 722.74 C 193.80 726.36 191.67 729.81 189.55 733.27 C 195.56 729.39 201.72 725.75 207.55 721.59 C 209.11 716.56 210.81 711.57 212.34 706.54 C 205.66 710.52 198.96 715.47 195.62 722.74 M 164.56 725.15 C 164.30 725.56 163.78 726.39 163.52 726.81 C 163.92 729.63 164.25 732.46 164.59 735.30 C 166.75 734.05 168.22 732.03 169.55 729.99 L 169.40 729.84 C 170.89 727.27 172.23 724.62 173.52 721.95 C 172.45 719.62 171.46 717.27 170.53 714.89 C 168.66 718.37 166.65 721.79 164.56 725.15 M 180.12 722.97 C 180.32 728.82 182.00 734.53 182.22 740.40 C 183.71 738.18 185.59 736.15 186.43 733.59 C 187.93 727.30 188.41 720.78 187.62 714.36 C 185.21 717.30 182.23 719.81 180.12 722.97 M 170.74 731.40 C 168.71 733.18 166.68 734.96 164.67 736.77 C 165.05 741.08 165.33 745.40 165.52 749.73 C 168.54 749.74 171.56 749.74 174.58 749.70 C 176.57 747.46 178.50 745.17 180.40 742.86 C 180.30 741.73 180.19 740.61 180.08 739.50 C 179.46 735.03 177.80 730.81 175.91 726.75 C 174.18 728.29 172.46 729.84 170.74 731.40 M 190.82 734.74 C 186.48 735.21 185.17 740.06 182.70 742.92 C 189.70 743.15 195.95 739.53 202.42 737.38 C 203.18 735.06 203.92 732.73 204.69 730.43 C 200.12 732.05 195.51 733.53 190.82 734.74 M 177.07 749.73 C 184.17 749.82 191.26 749.57 198.36 749.83 C 199.03 747.84 199.68 745.87 200.33 743.89 C 195.26 743.92 190.20 743.76 185.14 743.86 C 184.09 743.68 183.04 743.57 181.98 743.53 C 180.40 745.63 178.74 747.68 177.07 749.73 M 685.02 748.51 C 691.01 758.09 696.83 767.78 702.80 777.37 C 705.99 781.89 704.74 787.70 705.02 792.87 C 723.40 792.84 741.77 792.92 760.15 792.84 C 766.31 793.01 770.92 785.52 767.81 780.14 C 761.41 769.52 754.77 759.03 748.23 748.50 C 727.16 748.52 706.09 748.49 685.02 748.51 M 477.32 783.33 C 477.66 784.68 481.32 784.67 481.65 783.31 C 480.40 782.54 478.55 782.52 477.32 783.33 M 487.31 783.17 C 488.42 784.30 491.13 784.34 492.69 783.75 C 492.03 782.04 488.77 782.52 487.31 783.17 M 498.32 783.27 C 498.70 784.19 499.58 784.54 500.96 784.34 C 501.48 784.53 505.03 783.99 503.08 783.25 C 501.52 783.09 499.77 782.48 498.32 783.27 M 509.32 783.23 C 509.86 784.96 513.18 784.43 514.61 783.81 C 513.52 782.67 510.83 782.58 509.32 783.23 M 519.38 783.58 C 520.18 784.78 524.02 784.39 524.78 783.17 C 523.12 782.38 520.92 782.63 519.38 783.58 M 530.46 783.35 C 530.91 784.13 531.76 784.42 533.01 784.23 C 533.59 784.38 536.87 783.93 535.14 783.02 C 533.62 782.71 531.83 782.50 530.46 783.35 M 541.29 783.23 C 541.67 784.18 542.55 784.55 543.95 784.34 C 544.46 784.52 547.94 783.95 546.02 783.25 C 544.48 783.08 542.73 782.46 541.29 783.23 M 552.22 783.51 C 552.97 784.93 556.82 784.48 557.64 783.10 C 555.93 782.49 553.84 782.78 552.22 783.51 M 562.34 783.19 C 563.47 784.27 566.17 784.44 567.70 783.74 C 566.99 782.02 563.80 782.55 562.34 783.19 M 573.40 783.33 C 573.87 784.12 574.74 784.41 576.01 784.21 C 576.59 784.39 579.93 783.90 578.13 783.02 C 576.59 782.74 574.80 782.52 573.40 783.33 M 584.22 783.50 C 584.99 784.91 588.81 784.40 589.68 783.12 C 587.97 782.47 585.85 782.73 584.22 783.50 M 595.36 783.33 C 595.65 784.70 599.34 784.68 599.65 783.30 C 598.41 782.52 596.58 782.53 595.36 783.33 M 605.40 783.54 C 607.03 784.02 609.09 784.56 610.69 783.72 C 610.16 782.07 606.14 782.32 605.40 783.54 M 616.30 783.33 C 616.99 784.78 620.80 784.14 621.74 783.17 C 620.09 782.45 617.84 782.33 616.30 783.33 M 627.29 783.34 C 627.99 784.85 631.69 784.17 632.67 783.18 C 631.04 782.46 628.81 782.34 627.29 783.34 M 638.33 783.32 C 638.80 784.75 641.56 784.36 642.66 783.66 C 642.14 782.23 639.43 782.59 638.33 783.32 M 648.40 783.50 C 649.03 784.76 653.20 784.86 653.71 783.27 C 652.08 782.49 650.03 782.97 648.40 783.50 M 659.28 783.27 C 659.86 784.86 663.83 784.72 664.66 783.53 C 663.00 782.96 660.91 782.48 659.28 783.27 M 670.34 783.29 C 670.61 784.68 674.32 784.68 674.63 783.31 C 673.39 782.52 671.57 782.52 670.34 783.29 M 680.40 783.43 C 681.15 784.62 685.22 784.92 685.69 783.25 C 684.07 782.41 682.04 782.94 680.40 783.43 M 691.41 783.34 C 691.90 784.13 692.77 784.43 694.04 784.22 C 694.62 784.40 697.83 783.89 696.09 783.02 C 694.57 782.72 692.78 782.50 691.41 783.34 M 472.52 786.50 C 472.51 788.65 472.50 790.81 472.50 792.98 C 530.33 793.00 588.16 793.00 645.99 792.98 C 645.99 790.81 645.98 788.65 645.98 786.51 C 588.16 786.51 530.34 786.52 472.52 786.50 Z" />
<path fill="#273238" opacity="1.00" d=" M 492.31 451.35 C 496.29 450.86 500.76 452.95 502.16 456.88 C 503.16 459.61 503.36 462.73 502.50 465.53 C 501.75 467.33 499.73 466.53 498.33 466.27 C 496.92 466.95 495.20 468.71 493.75 467.14 C 492.24 463.49 494.82 459.86 497.59 457.68 C 495.85 456.30 493.63 456.03 491.57 455.42 C 489.96 454.57 490.53 451.65 492.31 451.35 Z" />
<path fill="#273238" opacity="1.00" d=" M 685.61 533.70 C 694.71 532.52 704.91 533.61 712.12 539.81 C 719.04 545.72 721.49 555.22 721.50 564.01 C 721.51 586.02 721.50 608.04 721.50 630.05 C 721.47 638.59 719.25 647.77 712.76 653.76 C 706.16 659.89 696.60 661.42 687.91 660.69 C 680.85 660.19 673.69 657.44 668.98 651.99 C 664.00 646.23 662.10 638.44 662.00 630.98 C 661.98 608.64 662.01 586.29 661.98 563.95 C 661.98 556.40 663.71 548.46 668.65 542.54 C 672.81 537.43 679.18 534.58 685.61 533.70 M 688.43 551.61 C 682.55 553.01 681.32 559.89 681.61 565.04 C 681.64 585.68 681.64 606.33 681.62 626.98 C 681.65 631.11 681.32 635.66 683.72 639.27 C 686.57 643.35 692.57 643.76 696.81 641.84 C 700.73 639.90 701.82 635.09 701.75 631.07 C 701.74 608.39 701.74 585.71 701.75 563.03 C 701.76 559.43 700.99 555.39 698.02 553.03 C 695.29 551.04 691.62 550.88 688.43 551.61 Z" />
<path fill="#273238" opacity="1.00" d=" M 760.47 546.49 C 764.24 543.59 766.05 539.04 767.70 534.74 C 772.14 534.75 776.58 534.73 781.02 534.74 C 781.00 576.29 781.00 617.83 781.02 659.38 C 774.46 659.41 767.90 659.32 761.35 659.43 C 761.11 627.75 761.29 596.07 761.26 564.38 C 756.23 564.38 751.21 564.34 746.20 564.42 C 746.06 559.76 746.12 555.10 746.15 550.45 C 751.11 550.26 756.42 549.67 760.47 546.49 Z" />
<path fill="#273238" opacity="1.00" d=" M 138.57 570.76 C 140.20 568.88 142.66 570.94 141.96 573.05 C 141.10 583.28 135.99 592.70 135.74 603.05 C 134.88 613.12 136.58 623.16 136.77 633.19 C 135.72 628.58 133.26 624.49 132.04 619.95 C 128.92 609.33 126.76 597.98 129.04 586.98 C 130.46 580.81 133.69 574.85 138.57 570.76 Z" />
<path fill="#273238" opacity="1.00" d=" M 114.45 588.24 C 117.69 589.37 119.00 592.79 120.44 595.60 C 124.78 604.93 128.10 614.68 131.98 624.20 C 133.40 627.99 135.37 631.58 136.38 635.53 C 138.35 630.53 137.72 625.06 139.12 619.94 C 140.44 614.61 142.20 609.13 145.86 604.91 C 146.97 603.42 148.82 602.96 150.56 602.65 C 150.86 608.92 147.30 614.43 145.11 620.08 C 141.70 627.16 138.92 634.83 139.76 642.83 C 138.15 642.33 138.71 639.57 137.70 638.36 C 129.56 626.11 121.19 613.72 116.30 599.74 C 115.04 596.05 113.84 592.18 114.45 588.24 Z" />
<path fill="#273238" opacity="1.00" d=" M 151.15 629.17 C 152.86 627.31 155.27 625.11 158.02 626.09 C 160.49 626.85 159.58 629.83 158.53 631.43 C 154.73 637.60 149.26 642.83 146.93 649.84 C 145.26 654.72 145.55 659.95 145.99 665.00 C 142.26 655.78 136.68 647.30 129.93 640.01 C 126.76 636.18 122.42 632.49 122.10 627.20 C 123.56 626.91 125.23 626.28 126.39 627.64 C 132.14 632.60 135.81 639.44 139.70 645.85 C 139.86 645.45 140.17 644.64 140.33 644.24 C 140.49 644.74 140.80 645.74 140.96 646.24 C 141.88 648.84 142.64 651.51 143.42 654.17 C 141.61 645.14 145.27 635.95 151.15 629.17 Z" />
<path fill="#273238" opacity="1.00" d=" M 582.59 814.26 C 583.86 814.26 585.13 814.28 586.41 814.31 C 586.41 823.10 586.23 831.90 586.48 840.69 C 586.50 844.89 593.53 844.95 593.63 840.74 C 593.92 831.90 593.66 823.05 593.74 814.20 C 594.97 814.23 596.20 814.28 597.44 814.36 C 597.31 822.23 597.44 830.11 597.38 837.99 C 597.28 840.52 597.21 843.38 595.36 845.35 C 591.74 849.17 583.68 847.68 582.89 842.01 C 582.22 832.80 582.83 823.51 582.59 814.26 Z" />
<path fill="#273238" opacity="1.00" d=" M 600.69 814.34 C 602.27 814.28 603.86 814.25 605.46 814.23 C 607.92 821.89 610.41 829.54 612.76 837.24 C 612.98 829.57 612.85 821.91 612.86 814.25 C 613.71 814.25 615.40 814.24 616.25 814.24 C 616.26 825.17 616.25 836.11 616.26 847.05 C 614.93 847.01 613.61 846.98 612.30 846.96 C 609.59 838.50 607.04 829.98 604.21 821.57 C 604.02 830.05 604.19 838.53 604.12 847.02 C 603.28 847.02 601.59 847.03 600.75 847.04 C 600.72 836.14 600.82 825.24 600.69 814.34 Z" />
<path fill="#273238" opacity="1.00" d=" M 625.19 814.22 C 626.97 814.23 628.76 814.25 630.56 814.28 C 632.62 825.18 634.73 836.08 636.80 846.98 C 635.53 846.98 634.26 846.98 633.00 846.99 C 632.60 844.83 632.17 842.65 631.77 840.50 C 629.06 840.50 626.36 840.50 623.66 840.51 C 623.22 842.65 622.94 844.84 622.26 846.94 C 621.41 846.98 619.71 847.06 618.86 847.10 C 620.97 836.14 623.03 825.17 625.19 814.22 M 627.56 818.89 C 626.50 825.03 625.27 831.13 624.13 837.25 C 626.49 837.23 628.85 837.24 631.22 837.24 C 630.02 831.12 628.93 824.98 627.56 818.89 Z" />
<path fill="#273238" opacity="1.00" d=" M 639.37 814.27 C 640.60 814.24 641.84 814.22 643.09 814.21 C 643.28 823.14 642.88 832.10 643.27 841.02 C 643.61 844.84 650.04 844.83 650.34 841.00 C 650.71 832.10 650.40 823.17 650.48 814.26 C 651.69 814.24 652.90 814.24 654.13 814.24 C 654.11 822.15 654.12 830.05 654.13 837.96 C 654.09 840.61 653.93 843.67 651.85 845.62 C 647.94 849.20 640.04 847.38 639.57 841.57 C 639.13 832.49 639.52 823.36 639.37 814.27 Z" />
<path fill="#273238" opacity="1.00" d=" M 656.25 814.25 C 661.50 814.25 666.76 814.24 672.02 814.24 C 672.00 815.41 671.99 816.58 671.98 817.77 C 669.99 817.75 668.00 817.74 666.02 817.73 C 666.00 827.50 666.00 837.27 666.02 847.05 C 664.75 847.02 663.49 846.99 662.23 846.98 C 662.26 837.24 662.24 827.49 662.24 817.75 C 660.23 817.74 658.24 817.74 656.25 817.75 C 656.24 816.57 656.24 815.40 656.25 814.25 Z" />
<path fill="#273238" opacity="1.00" d=" M 674.37 814.24 C 675.61 814.23 676.85 814.23 678.10 814.24 C 678.14 819.14 678.11 824.05 678.13 828.96 C 680.74 828.98 683.35 829.00 685.98 829.01 C 686.01 824.09 685.97 819.17 686.01 814.25 C 687.25 814.24 688.50 814.25 689.75 814.26 C 689.77 825.16 689.72 836.06 689.78 846.96 C 688.50 846.98 687.24 847.01 685.98 847.06 C 685.99 842.15 686.02 837.26 685.94 832.36 C 683.34 832.37 680.74 832.37 678.15 832.38 C 678.10 837.27 678.11 842.17 678.13 847.08 C 676.86 847.02 675.60 846.97 674.35 846.93 C 674.40 836.03 674.36 825.14 674.37 814.24 Z" />
<path fill="#273238" opacity="1.00" d=" M 697.35 814.46 C 700.83 813.25 705.63 813.98 707.28 817.70 C 708.72 821.27 707.95 825.25 708.13 829.01 C 707.93 833.52 708.62 838.14 707.66 842.60 C 705.99 849.03 695.17 849.01 693.53 842.58 C 692.41 836.82 693.25 830.89 692.97 825.06 C 692.82 821.21 693.04 816.02 697.35 814.46 M 699.46 817.52 C 696.58 818.26 696.71 821.67 696.73 824.03 C 696.89 829.67 696.47 835.35 696.96 840.98 C 697.26 844.04 701.65 844.91 703.45 842.65 C 704.73 840.69 704.27 838.23 704.40 836.04 C 704.27 831.02 704.54 826.01 704.28 821.01 C 704.36 818.52 701.75 816.74 699.46 817.52 Z" />
<path fill="#273238" opacity="1.00" d=" M 711.49 814.26 C 715.30 814.45 719.37 813.60 723.00 815.10 C 726.87 817.23 726.21 822.35 726.02 826.07 C 726.00 828.20 724.46 829.74 723.05 831.13 C 728.13 834.90 725.16 841.79 726.59 847.03 C 725.64 847.03 723.73 847.02 722.78 847.02 C 722.15 843.40 722.56 839.71 722.21 836.08 C 721.65 832.76 717.77 833.11 715.26 833.05 C 715.25 837.72 715.25 842.39 715.26 847.07 C 713.97 847.02 712.69 846.97 711.43 846.93 C 711.56 836.04 711.47 825.15 711.49 814.26 M 715.28 817.70 C 715.25 821.69 715.25 825.69 715.26 829.70 C 717.34 829.48 719.82 830.03 721.51 828.46 C 722.94 825.97 722.42 822.86 722.14 820.14 C 721.44 816.98 717.62 817.86 715.28 817.70 Z" />
<path fill="#273238" opacity="1.00" d=" M 729.77 814.23 C 731.04 814.22 732.33 814.22 733.62 814.23 C 733.64 825.14 733.62 836.05 733.64 846.96 C 732.33 846.98 731.02 847.01 729.73 847.05 C 729.78 836.11 729.71 825.17 729.77 814.23 Z" />
<path fill="#273238" opacity="1.00" d=" M 737.14 814.24 C 742.04 814.24 746.95 814.23 751.86 814.26 C 752.11 818.06 750.05 821.33 748.67 824.71 C 745.94 830.99 743.28 837.29 740.52 843.56 C 744.22 843.64 747.92 843.63 751.63 843.60 C 751.62 844.46 751.61 846.17 751.60 847.03 C 746.57 846.99 741.54 846.99 736.52 847.04 C 736.29 843.21 738.31 839.88 739.72 836.48 C 742.39 830.23 745.10 823.99 747.78 817.74 C 744.22 817.76 740.68 817.76 737.14 817.75 C 737.12 816.57 737.12 815.40 737.14 814.24 Z" />
<path fill="#273238" opacity="1.00" d=" M 754.87 814.25 C 759.37 814.24 763.88 814.23 768.38 814.27 C 768.38 815.41 768.38 816.57 768.39 817.74 C 765.13 817.75 761.88 817.75 758.63 817.75 C 758.62 821.40 758.62 825.05 758.62 828.71 C 761.28 828.74 763.95 828.74 766.62 828.75 C 766.62 829.59 766.63 831.28 766.63 832.13 C 763.95 832.12 761.28 832.13 758.62 832.14 C 758.62 835.96 758.62 839.78 758.63 843.61 C 761.88 843.62 765.13 843.63 768.39 843.62 C 768.39 844.46 768.39 846.16 768.38 847.00 C 763.87 847.00 759.37 847.00 754.87 847.01 C 754.88 836.09 754.88 825.17 754.87 814.25 Z" />
<path fill="#273238" opacity="1.00" d=" M 771.63 814.25 C 775.21 814.37 778.91 813.82 782.43 814.74 C 785.50 815.62 786.83 819.01 786.75 821.97 C 786.75 828.02 786.83 834.07 786.71 840.12 C 786.68 843.00 784.95 846.04 782.00 846.70 C 778.57 847.30 775.06 846.92 771.61 847.00 C 771.63 836.08 771.61 825.17 771.63 814.25 M 775.40 843.66 C 777.29 843.53 779.29 843.84 781.12 843.20 C 783.38 842.07 783.00 839.12 783.14 837.02 C 782.92 831.36 783.57 825.63 782.75 820.02 C 781.72 816.93 777.89 817.93 775.43 817.66 C 775.33 826.33 775.40 834.99 775.40 843.66 Z" />
</g>
<g id="#e2ff81ff">
<path fill="#e2ff81" opacity="1.00" d=" M 354.60 536.48 C 360.01 534.59 363.61 529.76 366.69 525.19 C 378.73 536.67 390.90 548.02 402.91 559.54 C 387.52 556.64 371.24 554.92 356.00 559.46 C 351.38 560.70 349.28 565.45 347.24 569.31 C 340.28 583.94 335.70 599.55 330.99 615.01 C 313.92 673.74 300.43 733.44 287.11 793.11 C 259.97 793.14 232.83 793.13 205.70 793.11 C 232.49 728.63 259.36 664.18 287.23 600.16 C 304.61 597.15 322.07 589.15 332.76 574.67 C 340.37 563.11 344.15 549.51 346.70 536.04 C 349.24 536.83 352.00 537.46 354.60 536.48 Z" />
</g>
<g id="#c6ff00ff">
<path fill="#c6ff00" opacity="1.00" d=" M 354.57 562.59 C 358.15 560.82 362.17 560.18 366.09 559.58 C 376.07 558.49 386.20 559.00 396.10 560.64 C 398.91 566.95 400.83 573.60 402.38 580.32 C 406.16 596.54 409.52 612.86 412.67 629.22 C 385.70 634.78 361.00 649.23 341.80 668.81 C 339.48 658.24 337.51 647.59 335.16 637.03 L 333.53 637.74 C 333.55 642.18 335.05 646.50 335.73 650.89 C 344.64 693.85 353.77 736.78 363.59 779.54 C 364.52 784.53 367.16 788.93 369.83 793.16 C 343.05 793.12 316.26 793.17 289.48 793.14 C 298.73 750.90 308.49 708.76 319.18 666.87 C 324.96 644.45 330.94 622.08 338.01 600.03 C 341.32 589.94 344.68 579.81 349.32 570.23 C 350.77 567.52 352.15 564.58 354.57 562.59 Z" />
<path fill="#c6ff00" opacity="1.00" d=" M 251.38 599.24 C 262.31 601.24 273.54 602.03 284.59 600.51 C 256.79 664.23 230.17 728.47 203.35 792.60 C 197.82 793.85 191.75 792.85 186.01 793.07 C 186.31 791.41 186.60 789.76 187.13 788.17 C 195.28 768.01 201.58 747.17 208.35 726.53 C 222.18 683.93 235.40 641.10 251.38 599.24 Z" />
</g>
</svg>
