<?xml version="1.0" encoding="UTF-8" ?>
<!DOCTYPE svg PUBLIC "-//W3C//DTD SVG 1.1//EN" "http://www.w3.org/Graphics/SVG/1.1/DTD/svg11.dtd">
<svg width="225pt" height="225pt" viewBox="0 0 225 225" version="1.1" xmlns="http://www.w3.org/2000/svg">
<g id="#ffffffff">
<path fill="#ffffff" opacity="1.00" d=" M 0.00 78.32 C 4.37 78.46 8.74 78.53 13.10 78.20 C 13.10 81.12 13.09 84.04 13.12 86.96 C 8.75 86.89 4.37 86.89 0.00 86.95 L 0.00 78.32 Z" />
<path fill="#ffffff" opacity="1.00" d=" M 41.90 78.20 C 47.89 78.54 53.91 78.58 59.91 78.18 C 59.87 81.10 59.86 84.02 59.97 86.95 C 53.93 86.90 47.90 86.89 41.86 86.95 C 41.92 84.04 41.90 81.12 41.90 78.20 Z" />
<path fill="#ffffff" opacity="1.00" d=" M 142.82 78.67 C 149.52 78.01 156.27 78.79 162.97 78.19 C 162.95 81.12 162.97 84.05 163.02 86.98 C 158.04 86.86 153.06 86.97 148.09 86.87 C 146.62 83.97 144.91 81.17 142.82 78.67 Z" />
<path fill="#ffffff" opacity="1.00" d=" M 191.75 78.20 C 202.82 78.60 213.92 78.47 225.00 78.26 L 225.00 86.94 C 213.92 86.90 202.84 86.88 191.77 86.96 C 191.69 84.04 191.70 81.12 191.75 78.20 Z" />
</g>
<g id="#222634ff">
<path fill="#222634" opacity="1.00" d=" M 154.55 0.00 L 161.47 0.00 C 172.05 1.16 182.61 6.53 187.93 16.05 C 193.34 25.18 191.84 37.47 184.86 45.37 C 172.94 59.11 150.44 60.83 136.15 49.82 C 127.24 43.58 123.03 31.68 125.98 21.20 C 129.92 8.97 142.16 1.25 154.55 0.00 M 151.41 3.59 C 141.59 5.52 132.36 12.52 129.60 22.40 C 127.56 30.14 130.01 38.69 135.70 44.29 C 146.66 55.59 166.30 56.31 178.32 46.31 C 184.01 41.67 187.88 34.44 187.25 26.97 C 186.95 19.01 181.90 11.85 175.24 7.77 C 168.26 3.24 159.50 2.08 151.41 3.59 Z" />
</g>
<g id="#fd0202ff">
<path fill="#fd0202" opacity="1.00" d=" M 150.95 7.91 C 155.69 7.72 160.43 7.73 165.17 7.90 C 165.49 12.54 165.24 17.18 165.25 21.82 C 170.76 22.12 176.29 21.65 181.80 22.06 C 181.68 26.05 181.67 30.03 181.78 34.01 C 176.34 34.77 170.79 34.10 165.30 34.31 C 165.22 38.96 165.48 43.61 165.18 48.26 C 160.44 48.51 155.68 48.53 150.94 48.25 C 150.72 43.60 151.02 38.94 150.77 34.28 C 145.43 34.26 140.08 34.51 134.74 34.19 C 134.46 30.12 134.44 26.04 134.73 21.98 C 140.11 21.78 145.49 22.01 150.86 21.87 C 150.94 17.22 150.73 12.56 150.95 7.91 Z" />
</g>
<g id="#302e93ff">
<path fill="#302e93" opacity="1.00" d=" M 111.23 17.06 C 112.31 16.75 113.48 16.00 114.63 16.47 C 118.52 17.77 122.19 19.63 125.98 21.20 C 123.03 31.68 127.24 43.58 136.15 49.82 C 150.44 60.83 172.94 59.11 184.86 45.37 C 188.53 47.50 192.56 48.87 196.45 50.54 C 205.96 54.49 215.43 58.55 225.00 62.38 L 225.00 78.26 C 213.92 78.47 202.82 78.60 191.75 78.20 C 191.75 74.85 191.72 71.50 191.70 68.15 C 182.23 67.53 172.69 67.68 163.22 68.06 C 163.17 71.43 163.09 74.81 162.97 78.19 C 156.27 78.79 149.52 78.01 142.82 78.67 C 136.33 72.13 127.26 68.16 118.03 68.05 C 111.28 67.87 104.37 67.89 97.89 70.05 C 94.84 71.13 92.03 72.77 89.01 73.94 C 88.86 72.71 88.71 71.49 88.57 70.26 C 79.15 69.89 69.70 70.09 60.27 70.16 C 60.11 72.83 59.97 75.50 59.91 78.18 C 53.91 78.58 47.89 78.54 41.90 78.20 C 41.88 75.53 41.77 72.86 41.64 70.19 C 32.22 70.01 22.78 70.01 13.36 70.19 C 13.24 72.86 13.13 75.53 13.10 78.20 C 8.74 78.53 4.37 78.46 0.00 78.32 L 0.00 63.34 C 37.16 48.12 74.08 32.32 111.23 17.06 Z" />
<path fill="#302e93" opacity="1.00" d=" M 0.00 87.98 C 4.38 88.00 8.76 88.00 13.14 87.99 C 13.58 108.55 13.20 129.13 13.32 149.69 C 22.77 149.64 32.22 149.64 41.67 149.69 C 41.91 139.82 41.24 129.91 41.97 120.05 C 47.96 119.85 53.95 119.82 59.93 120.11 C 60.55 129.96 59.81 139.84 60.27 149.70 C 69.40 149.61 78.54 149.71 87.67 149.65 C 88.20 148.58 88.72 147.52 89.24 146.45 C 102.12 153.61 118.49 153.28 131.14 145.76 C 131.63 147.03 132.12 148.30 132.59 149.58 C 139.19 149.74 145.81 149.84 152.40 149.35 C 155.84 149.14 159.26 149.93 162.70 149.54 C 166.50 149.16 170.25 148.39 174.04 147.90 L 174.78 148.22 C 176.72 152.73 178.84 157.16 180.40 161.82 C 181.64 161.32 182.82 160.71 183.97 160.03 C 185.58 159.11 187.26 158.31 188.95 157.55 C 190.71 156.80 192.45 156.00 194.22 155.26 C 195.81 154.67 197.44 154.14 199.01 153.47 C 200.34 152.84 201.65 152.16 202.92 151.40 C 208.60 148.43 211.99 140.47 207.94 134.88 C 207.32 134.08 206.67 133.31 206.01 132.55 C 204.92 131.78 203.74 131.17 202.52 130.64 C 201.06 130.27 199.57 130.04 198.07 129.95 C 195.97 130.39 193.76 131.06 192.74 133.14 C 191.28 132.80 191.13 131.36 190.83 130.14 C 192.55 116.16 191.18 102.04 191.77 87.99 C 202.85 87.99 213.92 88.02 225.00 87.98 L 225.00 168.51 C 221.16 174.50 217.80 180.89 215.38 187.60 C 214.13 188.47 213.31 187.23 212.48 186.45 C 211.54 186.89 210.60 187.34 209.66 187.78 C 210.76 185.54 212.96 183.07 211.45 180.48 C 209.31 178.21 206.97 181.81 204.95 182.72 C 203.48 182.57 201.90 181.81 200.48 182.43 C 198.97 183.81 197.77 185.47 196.42 186.98 C 195.89 185.30 195.34 183.64 194.78 181.97 C 190.26 180.70 187.13 184.70 184.16 187.34 C 183.57 186.33 182.99 185.33 182.43 184.32 C 180.09 184.42 177.74 184.36 175.42 184.61 C 173.78 185.59 172.48 187.03 170.98 188.19 C 169.88 186.90 168.82 185.59 167.78 184.26 C 164.02 185.04 161.10 188.40 157.05 187.90 C 137.69 187.79 118.31 187.97 98.95 187.81 C 93.96 187.22 88.98 188.03 83.99 187.89 C 71.24 187.84 58.49 187.88 45.74 187.89 C 47.96 185.07 50.33 182.35 52.83 179.76 C 53.24 181.80 52.31 184.58 54.36 185.93 C 57.05 186.61 58.86 184.18 60.80 182.79 C 62.29 183.79 63.78 185.73 65.80 184.89 C 68.49 183.30 70.08 179.85 73.60 179.96 C 74.93 181.09 75.92 183.27 77.97 182.99 C 79.95 182.76 81.39 181.09 83.02 180.07 C 84.25 180.38 85.49 180.68 86.73 180.97 C 87.73 179.66 88.72 178.35 89.72 177.04 C 90.03 178.17 90.34 179.30 90.65 180.43 C 93.23 181.13 94.66 178.41 96.26 176.94 C 96.98 177.94 97.69 178.95 98.40 179.96 C 101.38 179.86 103.33 177.34 105.67 175.83 C 107.42 176.91 109.39 178.83 111.59 177.68 C 113.75 176.23 115.47 174.09 118.03 173.30 C 120.10 175.07 122.80 177.00 125.61 175.57 C 129.28 173.43 133.48 170.28 133.11 165.53 C 132.58 165.60 131.51 165.74 130.97 165.81 C 130.79 162.89 130.33 160.01 129.63 157.17 C 128.23 157.21 126.31 156.88 125.68 158.54 C 123.99 161.75 121.80 164.65 119.17 167.14 C 118.62 164.99 118.26 162.70 116.84 160.90 C 112.36 160.37 109.39 164.05 106.78 167.07 C 106.04 166.01 105.31 164.95 104.59 163.90 C 102.73 164.39 101.22 165.60 99.65 166.63 C 98.84 165.71 97.98 164.85 97.07 164.04 C 95.63 164.94 94.23 165.92 92.72 166.69 C 91.31 167.11 89.86 166.32 88.42 166.47 C 84.07 169.04 84.11 175.84 78.77 177.15 C 79.77 174.10 82.59 172.02 83.29 168.82 C 83.80 166.60 85.88 165.15 86.39 162.96 C 86.82 161.05 84.17 159.43 82.77 160.73 C 80.90 161.99 80.89 164.39 80.23 166.33 C 79.22 167.83 77.63 168.80 76.26 169.93 C 75.42 169.27 74.59 168.61 73.75 167.96 C 72.52 168.71 71.39 169.61 70.34 170.59 C 68.97 169.87 67.29 168.45 65.75 169.67 C 62.78 172.09 61.13 175.80 60.15 179.43 C 59.67 179.30 58.69 179.05 58.21 178.92 C 59.43 176.15 63.34 173.25 60.85 170.13 C 57.43 169.88 53.82 168.96 50.88 171.25 C 44.94 169.52 40.02 174.78 37.76 179.69 C 36.43 182.34 37.55 185.27 37.93 187.99 C 37.21 187.99 35.76 187.99 35.04 188.00 C 35.48 185.19 37.35 181.53 34.68 179.29 C 31.10 176.43 26.28 176.34 21.94 175.76 C 24.16 172.99 27.66 171.96 30.94 171.07 C 31.07 171.81 31.32 173.27 31.45 174.00 C 34.26 173.33 36.57 171.46 38.91 169.86 C 41.11 168.51 41.68 163.98 38.60 163.38 C 32.95 162.82 27.22 164.64 22.30 167.34 C 18.27 169.38 16.15 174.32 17.16 178.67 C 20.87 182.08 26.46 180.81 31.00 182.10 C 30.42 183.89 28.59 184.54 26.98 185.10 C 23.50 186.19 19.65 187.33 16.18 185.60 C 13.94 186.85 11.66 188.21 8.99 188.08 C 10.65 182.77 14.65 178.44 15.57 172.88 C 16.29 170.40 18.42 168.17 17.69 165.42 C 17.07 163.42 13.98 163.02 13.00 164.94 C 11.89 167.17 12.07 169.79 11.07 172.07 C 9.00 177.06 6.12 181.66 3.30 186.25 C 2.64 187.52 1.16 187.81 0.00 188.44 L 0.00 87.98 M 190.27 178.82 C 193.53 182.04 196.53 176.63 198.59 174.51 C 200.45 172.99 199.29 170.37 197.01 170.30 C 193.10 171.23 191.51 175.43 190.27 178.82 Z" />
<path fill="#302e93" opacity="1.00" d=" M 41.82 87.99 C 47.89 88.05 53.95 88.04 60.02 87.96 C 60.17 90.34 60.17 92.72 60.07 95.11 C 54.01 95.53 47.92 95.49 41.86 95.12 C 41.69 92.75 41.68 90.36 41.82 87.99 Z" />
<path fill="#302e93" opacity="1.00" d=" M 148.78 88.23 C 153.53 87.98 158.29 87.98 163.05 88.01 C 163.41 97.67 163.07 107.34 163.24 117.01 C 163.12 119.45 163.45 122.06 162.39 124.33 C 160.95 127.16 156.11 126.76 155.22 123.68 C 154.17 119.36 154.87 114.86 154.74 110.47 C 153.80 110.48 152.87 110.51 151.94 110.53 C 151.83 108.41 151.73 106.30 151.65 104.18 C 139.21 103.95 126.74 103.91 114.30 104.21 C 114.32 110.74 114.33 117.28 114.30 123.81 C 117.52 124.04 120.76 124.07 123.99 124.19 C 120.82 129.82 112.70 130.39 107.40 127.71 C 102.05 124.45 101.51 117.60 101.01 111.97 C 101.01 106.84 101.49 101.46 103.69 96.76 C 106.19 91.23 113.76 89.08 118.92 92.07 C 121.79 93.72 122.80 97.04 124.32 99.77 C 133.18 99.93 142.05 99.93 150.91 99.75 C 150.69 95.83 149.68 92.03 148.78 88.23 Z" />
<path fill="#302e93" opacity="1.00" d=" M 104.25 173.18 C 101.31 172.41 105.88 168.24 105.23 172.13 C 104.98 172.39 104.49 172.92 104.25 173.18 Z" />
</g>
<g id="#150b45ff">
<path fill="#150b45" opacity="1.00" d=" M 97.89 70.05 C 104.37 67.89 111.28 67.87 118.03 68.05 C 127.26 68.16 136.33 72.13 142.82 78.67 C 144.91 81.17 146.62 83.97 148.09 86.87 C 148.26 87.21 148.61 87.89 148.78 88.23 C 149.68 92.03 150.69 95.83 150.91 99.75 C 142.05 99.93 133.18 99.93 124.32 99.77 C 122.80 97.04 121.79 93.72 118.92 92.07 C 113.76 89.08 106.19 91.23 103.69 96.76 C 101.49 101.46 101.01 106.84 101.01 111.97 C 101.51 117.60 102.05 124.45 107.40 127.71 C 112.70 130.39 120.82 129.82 123.99 124.19 C 120.76 124.07 117.52 124.04 114.30 123.81 C 114.33 117.28 114.32 110.74 114.30 104.21 C 126.74 103.91 139.21 103.95 151.65 104.18 C 151.73 106.30 151.83 108.41 151.94 110.53 C 152.87 110.51 153.80 110.48 154.74 110.47 C 154.87 114.86 154.17 119.36 155.22 123.68 C 156.11 126.76 160.95 127.16 162.39 124.33 C 163.45 122.06 163.12 119.45 163.24 117.01 C 163.07 107.34 163.41 97.67 163.05 88.01 L 163.02 86.98 C 162.97 84.05 162.95 81.12 162.97 78.19 C 163.09 74.81 163.17 71.43 163.22 68.06 C 172.69 67.68 182.23 67.53 191.70 68.15 C 191.72 71.50 191.75 74.85 191.75 78.20 C 191.70 81.12 191.69 84.04 191.77 86.96 L 191.77 87.99 C 191.18 102.04 192.55 116.16 190.83 130.14 C 189.54 126.95 186.77 124.67 183.53 123.64 C 177.69 121.66 171.53 126.67 170.36 132.33 C 168.87 137.88 172.39 142.85 174.04 147.90 C 170.25 148.39 166.50 149.16 162.70 149.54 C 159.26 149.93 155.84 149.14 152.40 149.35 C 145.81 149.84 139.19 149.74 132.59 149.58 C 132.12 148.30 131.63 147.03 131.14 145.76 C 118.49 153.28 102.12 153.61 89.24 146.45 C 88.72 147.52 88.20 148.58 87.67 149.65 C 78.54 149.71 69.40 149.61 60.27 149.70 C 59.81 139.84 60.55 129.96 59.93 120.11 C 53.95 119.82 47.96 119.85 41.97 120.05 C 41.24 129.91 41.91 139.82 41.67 149.69 C 32.22 149.64 22.77 149.64 13.32 149.69 C 13.20 129.13 13.58 108.55 13.14 87.99 L 13.12 86.96 C 13.09 84.04 13.10 81.12 13.10 78.20 C 13.13 75.53 13.24 72.86 13.36 70.19 C 22.78 70.01 32.22 70.01 41.64 70.19 C 41.77 72.86 41.88 75.53 41.90 78.20 C 41.90 81.12 41.92 84.04 41.86 86.95 L 41.82 87.99 C 41.68 90.36 41.69 92.75 41.86 95.12 C 47.92 95.49 54.01 95.53 60.07 95.11 C 60.17 92.72 60.17 90.34 60.02 87.96 L 59.97 86.95 C 59.86 84.02 59.87 81.10 59.91 78.18 C 59.97 75.50 60.11 72.83 60.27 70.16 C 69.70 70.09 79.15 69.89 88.57 70.26 C 88.71 71.49 88.86 72.71 89.01 73.94 C 92.03 72.77 94.84 71.13 97.89 70.05 M 165.29 69.50 C 164.85 86.67 165.33 103.87 165.05 121.05 C 164.96 123.58 164.29 126.62 161.74 127.77 C 158.95 128.53 154.87 128.65 153.61 125.43 C 152.04 121.52 152.88 117.17 152.74 113.06 C 145.57 112.35 138.27 112.76 131.06 112.85 C 130.99 118.66 130.76 124.62 132.60 130.21 C 134.37 137.20 139.65 143.25 146.59 145.45 C 154.73 148.11 163.81 148.19 172.03 145.86 C 171.19 142.90 169.45 140.21 169.19 137.09 C 168.27 130.91 171.89 123.71 178.39 122.48 C 182.28 121.48 185.97 123.31 189.14 125.37 C 189.69 124.00 189.60 122.50 189.62 121.05 C 189.56 103.86 189.64 86.68 189.58 69.50 C 181.49 69.82 173.38 69.80 165.29 69.50 M 80.24 86.29 C 75.64 93.62 74.51 102.48 74.58 110.97 C 74.88 119.76 76.56 128.91 81.84 136.17 C 86.04 142.27 92.49 146.80 99.75 148.42 C 111.06 150.96 124.22 149.54 132.83 141.10 C 133.17 143.27 133.48 145.47 134.22 147.55 C 137.80 147.44 141.38 147.46 144.95 147.66 C 141.61 145.17 137.55 143.53 135.07 140.01 C 128.56 131.78 128.44 120.73 129.04 110.75 C 135.90 110.39 142.77 110.70 149.64 110.63 C 149.69 109.15 149.72 107.67 149.76 106.20 C 138.60 105.85 127.41 105.93 116.25 106.16 C 116.35 111.41 116.33 116.66 116.26 121.92 C 119.84 122.51 123.48 122.09 127.09 122.17 C 126.65 126.50 122.58 129.48 118.68 130.64 C 113.39 132.02 106.78 131.35 103.20 126.77 C 99.47 121.67 98.94 115.04 99.14 108.92 C 99.47 103.35 100.03 97.27 103.86 92.87 C 107.62 88.29 114.69 87.56 119.79 90.20 C 122.69 91.72 124.38 94.70 125.41 97.69 C 133.03 98.38 140.73 97.81 148.38 98.01 C 148.08 88.35 142.33 78.82 133.69 74.29 C 125.04 69.55 114.77 69.18 105.19 70.45 C 95.18 71.95 85.43 77.40 80.24 86.29 M 15.25 72.11 C 15.44 97.27 15.22 122.44 15.35 147.60 C 23.45 147.41 31.55 147.41 39.65 147.60 C 39.86 137.77 39.41 127.93 39.85 118.12 C 47.23 118.16 54.60 118.20 61.98 118.10 C 62.27 127.94 61.72 137.79 62.24 147.62 C 70.06 147.32 77.89 147.56 85.72 147.50 C 87.26 146.30 86.34 143.97 84.95 143.03 C 74.71 133.82 71.66 119.20 72.47 105.96 C 72.81 94.60 77.43 83.17 86.39 75.92 C 86.46 74.60 86.43 73.28 86.30 71.96 C 78.22 71.85 70.13 71.84 62.05 71.97 C 61.97 80.38 62.12 88.80 62.00 97.21 C 54.60 97.45 47.19 97.44 39.79 97.22 C 39.54 88.86 39.71 80.49 39.74 72.13 C 31.59 71.73 23.39 71.77 15.25 72.11 Z" />
</g>
<g id="#fefefeff">
<path fill="#fefefe" opacity="1.00" d=" M 165.29 69.50 C 173.38 69.80 181.49 69.82 189.58 69.50 C 189.64 86.68 189.56 103.86 189.62 121.05 C 189.60 122.50 189.69 124.00 189.14 125.37 C 185.97 123.31 182.28 121.48 178.39 122.48 C 171.89 123.71 168.27 130.91 169.19 137.09 C 169.45 140.21 171.19 142.90 172.03 145.86 C 163.81 148.19 154.73 148.11 146.59 145.45 C 139.65 143.25 134.37 137.20 132.60 130.21 C 130.76 124.62 130.99 118.66 131.06 112.85 C 138.27 112.76 145.57 112.35 152.74 113.06 C 152.88 117.17 152.04 121.52 153.61 125.43 C 154.87 128.65 158.95 128.53 161.74 127.77 C 164.29 126.62 164.96 123.58 165.05 121.05 C 165.33 103.87 164.85 86.67 165.29 69.50 Z" />
<path fill="#fefefe" opacity="1.00" d=" M 80.24 86.29 C 85.43 77.40 95.18 71.95 105.19 70.45 C 114.77 69.18 125.04 69.55 133.69 74.29 C 142.33 78.82 148.08 88.35 148.38 98.01 C 140.73 97.81 133.03 98.38 125.41 97.69 C 124.38 94.70 122.69 91.72 119.79 90.20 C 114.69 87.56 107.62 88.29 103.86 92.87 C 100.03 97.27 99.47 103.35 99.14 108.92 C 98.94 115.04 99.47 121.67 103.20 126.77 C 106.78 131.35 113.39 132.02 118.68 130.64 C 122.58 129.48 126.65 126.50 127.09 122.17 C 123.48 122.09 119.84 122.51 116.26 121.92 C 116.33 116.66 116.35 111.41 116.25 106.16 C 127.41 105.93 138.60 105.85 149.76 106.20 C 149.72 107.67 149.69 109.15 149.64 110.63 C 142.77 110.70 135.90 110.39 129.04 110.75 C 128.44 120.73 128.56 131.78 135.07 140.01 C 137.55 143.53 141.61 145.17 144.95 147.66 C 141.38 147.46 137.80 147.44 134.22 147.55 C 133.48 145.47 133.17 143.27 132.83 141.10 C 124.22 149.54 111.06 150.96 99.75 148.42 C 92.49 146.80 86.04 142.27 81.84 136.17 C 76.56 128.91 74.88 119.76 74.58 110.97 C 74.51 102.48 75.64 93.62 80.24 86.29 Z" />
<path fill="#fefefe" opacity="1.00" d=" M 15.25 72.11 C 23.39 71.77 31.59 71.73 39.74 72.13 C 39.71 80.49 39.54 88.86 39.79 97.22 C 47.19 97.44 54.60 97.45 62.00 97.21 C 62.12 88.80 61.97 80.38 62.05 71.97 C 70.13 71.84 78.22 71.85 86.30 71.96 C 86.43 73.28 86.46 74.60 86.39 75.92 C 77.43 83.17 72.81 94.60 72.47 105.96 C 71.66 119.20 74.71 133.82 84.95 143.03 C 86.34 143.97 87.26 146.30 85.72 147.50 C 77.89 147.56 70.06 147.32 62.24 147.62 C 61.72 137.79 62.27 127.94 61.98 118.10 C 54.60 118.20 47.23 118.16 39.85 118.12 C 39.41 127.93 39.86 137.77 39.65 147.60 C 31.55 147.41 23.45 147.41 15.35 147.60 C 15.22 122.44 15.44 97.27 15.25 72.11 Z" />
<path fill="#fefefe" opacity="1.00" d=" M 190.27 178.82 C 191.51 175.43 193.10 171.23 197.01 170.30 C 199.29 170.37 200.45 172.99 198.59 174.51 C 196.53 176.63 193.53 182.04 190.27 178.82 M 191.91 178.99 C 194.57 177.37 197.57 174.97 198.13 171.80 C 194.24 171.21 192.59 175.95 191.91 178.99 Z" />
</g>
<g id="#040088ff">
<path fill="#040088" opacity="1.00" d=" M 0.00 86.95 C 4.37 86.89 8.75 86.89 13.12 86.96 L 13.14 87.99 C 8.76 88.00 4.38 88.00 0.00 87.98 L 0.00 86.95 Z" />
<path fill="#040088" opacity="1.00" d=" M 191.77 86.96 C 202.84 86.88 213.92 86.90 225.00 86.94 L 225.00 87.98 C 213.92 88.02 202.85 87.99 191.77 87.99 L 191.77 86.96 Z" />
<path fill="#040088" opacity="1.00" d=" M 67.00 177.02 C 67.66 176.31 67.66 176.31 67.00 177.02 Z" />
</g>
<g id="#050188ff">
<path fill="#050188" opacity="1.00" d=" M 41.86 86.95 C 47.90 86.89 53.93 86.90 59.97 86.95 L 60.02 87.96 C 53.95 88.04 47.89 88.05 41.82 87.99 L 41.86 86.95 Z" />
<path fill="#050188" opacity="1.00" d=" M 148.09 86.87 C 153.06 86.97 158.04 86.86 163.02 86.98 L 163.05 88.01 C 158.29 87.98 153.53 87.98 148.78 88.23 C 148.61 87.89 148.26 87.21 148.09 86.87 Z" />
</g>
<g id="#d52c2bff">
<path fill="#d52c2b" opacity="1.00" d=" M 170.36 132.33 C 171.53 126.67 177.69 121.66 183.53 123.64 C 182.91 126.75 182.02 129.80 180.78 132.72 C 178.63 137.83 177.64 143.41 174.78 148.22 L 174.04 147.90 C 172.39 142.85 168.87 137.88 170.36 132.33 Z" />
</g>
<g id="#dd0b0bff">
<path fill="#dd0b0b" opacity="1.00" d=" M 183.53 123.64 C 186.77 124.67 189.54 126.95 190.83 130.14 C 191.13 131.36 191.28 132.80 192.74 133.14 C 190.62 142.36 186.14 150.82 183.97 160.03 C 182.82 160.71 181.64 161.32 180.40 161.82 C 178.84 157.16 176.72 152.73 174.78 148.22 C 177.64 143.41 178.63 137.83 180.78 132.72 C 182.02 129.80 182.91 126.75 183.53 123.64 Z" />
<path fill="#dd0b0b" opacity="1.00" d=" M 130.13 168.40 C 131.52 167.68 131.96 168.05 131.44 169.52 C 130.01 170.24 129.58 169.87 130.13 168.40 Z" />
<path fill="#dd0b0b" opacity="1.00" d=" M 191.91 178.99 C 192.59 175.95 194.24 171.21 198.13 171.80 C 197.57 174.97 194.57 177.37 191.91 178.99 Z" />
</g>
<g id="#d52d2dff">
<path fill="#d52d2d" opacity="1.00" d=" M 192.74 133.14 C 193.76 131.06 195.97 130.39 198.07 129.95 C 195.91 137.29 193.00 144.38 190.56 151.63 C 189.97 153.58 188.62 155.43 188.95 157.55 C 187.26 158.31 185.58 159.11 183.97 160.03 C 186.14 150.82 190.62 142.36 192.74 133.14 Z" />
</g>
<g id="#de5555ff">
<path fill="#de5555" opacity="1.00" d=" M 198.07 129.95 C 199.57 130.04 201.06 130.27 202.52 130.64 C 200.65 135.16 198.81 139.69 197.35 144.36 C 196.23 147.97 194.35 151.41 194.22 155.26 C 192.45 156.00 190.71 156.80 188.95 157.55 C 188.62 155.43 189.97 153.58 190.56 151.63 C 193.00 144.38 195.91 137.29 198.07 129.95 Z" />
</g>
<g id="#dd7777ff">
<path fill="#dd7777" opacity="1.00" d=" M 202.52 130.64 C 203.74 131.17 204.92 131.78 206.01 132.55 C 202.55 135.96 202.23 141.06 200.28 145.29 C 199.45 147.90 197.25 150.77 199.01 153.47 C 197.44 154.14 195.81 154.67 194.22 155.26 C 194.35 151.41 196.23 147.97 197.35 144.36 C 198.81 139.69 200.65 135.16 202.52 130.64 Z" />
</g>
<g id="#dd8f8fff">
<path fill="#dd8f8f" opacity="1.00" d=" M 200.28 145.29 C 202.23 141.06 202.55 135.96 206.01 132.55 C 206.67 133.31 207.32 134.08 207.94 134.88 C 205.84 139.04 204.26 143.44 202.86 147.87 C 202.34 149.02 202.66 150.23 202.92 151.40 C 201.65 152.16 200.34 152.84 199.01 153.47 C 197.25 150.77 199.45 147.90 200.28 145.29 Z" />
</g>
<g id="#ddb4b4ff">
<path fill="#ddb4b4" opacity="1.00" d=" M 202.86 147.87 C 204.26 143.44 205.84 139.04 207.94 134.88 C 211.99 140.47 208.60 148.43 202.92 151.40 C 202.66 150.23 202.34 149.02 202.86 147.87 Z" />
</g>
<g id="#ed2e33ff">
<path fill="#ed2e33" opacity="1.00" d=" M 127.24 158.24 C 127.63 158.20 128.42 158.12 128.81 158.08 C 129.13 160.27 129.82 162.44 129.67 164.67 C 129.30 167.34 127.16 169.16 125.75 171.30 C 126.98 170.96 128.20 170.62 129.43 170.27 C 128.69 172.72 126.22 174.20 123.90 174.91 C 121.50 175.54 120.00 173.15 118.77 171.54 C 115.57 172.42 113.29 174.79 110.76 176.76 C 108.42 177.49 107.24 174.99 106.50 173.25 C 103.83 174.80 102.24 177.89 99.18 178.79 C 98.84 178.57 98.18 178.12 97.84 177.90 C 98.25 175.42 99.37 173.16 100.25 170.84 C 100.35 170.73 100.53 170.52 100.63 170.41 C 100.53 170.52 100.35 170.73 100.25 170.84 C 99.72 170.94 98.64 171.15 98.10 171.25 C 99.57 168.75 101.66 166.60 103.97 164.86 C 108.08 168.20 98.21 171.88 102.68 174.76 C 103.07 174.36 103.86 173.58 104.25 173.18 C 104.49 172.92 104.98 172.39 105.23 172.13 C 107.92 168.04 110.30 162.26 115.99 161.86 C 118.52 164.59 117.19 168.06 116.22 171.13 C 117.43 170.88 118.45 170.16 119.20 169.18 C 122.06 165.67 125.17 162.31 127.24 158.24 M 121.50 168.17 C 121.89 170.15 124.64 172.09 125.05 169.06 C 127.08 168.28 126.55 165.71 126.04 164.11 C 123.89 164.29 122.98 166.87 121.50 168.17 M 108.93 174.05 C 114.04 175.00 113.12 168.99 113.88 165.78 C 110.67 167.12 108.29 170.48 108.93 174.05 Z" />
<path fill="#ed2e33" opacity="1.00" d=" M 43.22 174.17 C 44.78 172.85 46.71 171.36 48.89 171.92 C 50.46 172.75 49.51 174.60 48.87 175.71 C 46.90 178.50 43.70 179.94 41.14 182.09 C 41.65 185.43 46.28 184.43 47.00 181.75 C 47.53 181.71 48.60 181.62 49.13 181.57 C 47.65 184.60 44.65 187.64 41.04 187.45 C 38.73 187.40 38.25 184.82 38.24 182.99 C 38.19 179.39 40.70 176.46 43.22 174.17 M 41.93 179.41 C 44.64 179.22 46.68 176.48 47.05 173.94 C 44.54 174.75 42.70 176.93 41.93 179.41 Z" />
<path fill="#ed2e33" opacity="1.00" d=" M 198.97 190.95 C 203.25 188.47 205.09 182.85 209.90 180.87 C 211.13 181.65 211.39 183.26 210.35 184.32 C 208.78 186.62 206.45 188.81 206.98 191.87 C 208.62 190.79 210.19 189.59 211.98 188.77 C 209.98 191.61 207.72 195.29 204.03 195.85 C 202.56 192.66 205.07 189.79 206.10 186.92 C 202.70 188.91 201.15 192.75 198.76 195.70 C 196.80 195.95 197.03 193.55 196.64 192.29 C 193.55 193.45 191.13 195.63 188.65 197.71 C 185.85 199.20 184.40 195.93 183.19 194.03 C 181.40 195.93 179.01 197.55 178.33 200.21 C 176.81 204.74 173.69 209.68 168.92 211.09 C 167.50 205.54 173.31 202.47 176.38 198.93 C 176.46 197.10 174.44 197.03 173.19 196.55 C 173.89 193.12 178.03 191.89 179.92 189.14 C 178.14 189.50 176.34 189.90 174.70 190.72 C 172.28 194.22 169.94 197.86 166.70 200.69 C 165.74 201.70 164.43 202.13 163.06 202.10 C 163.00 200.34 163.00 198.59 162.99 196.84 C 160.92 198.57 159.81 201.72 157.04 202.38 C 155.39 201.53 154.93 199.31 153.01 198.78 C 156.03 192.82 161.18 186.58 168.16 185.79 C 168.26 187.19 168.25 188.59 168.14 189.99 C 168.14 192.58 165.01 194.38 165.92 197.08 C 168.45 198.16 170.29 195.25 171.70 193.58 C 172.93 192.40 172.65 190.75 172.37 189.26 C 173.11 188.02 174.05 186.92 175.15 185.99 C 177.51 186.80 179.78 185.73 182.00 185.01 C 183.85 189.05 179.72 191.05 177.25 193.31 C 176.32 194.69 178.40 195.56 179.05 196.49 C 184.05 194.00 184.27 187.69 188.69 184.65 C 190.10 183.40 191.92 182.63 193.83 182.91 C 195.84 185.74 194.70 188.98 193.92 192.01 C 198.39 190.76 197.91 183.10 203.13 182.97 C 202.92 186.13 199.65 187.90 198.97 190.95 M 186.08 194.98 C 187.58 195.18 189.78 195.22 190.49 193.56 C 190.67 190.99 191.05 188.45 191.92 186.01 C 188.91 188.10 185.49 190.85 186.08 194.98 M 156.97 199.11 C 157.41 199.05 158.28 198.92 158.72 198.86 C 161.78 196.18 164.40 192.89 166.08 189.17 C 162.55 191.77 156.66 193.92 156.97 199.11 M 175.27 202.69 C 175.80 202.17 175.80 202.17 175.27 202.69 M 170.09 208.11 C 172.78 207.94 175.09 205.32 175.27 202.69 C 172.89 203.72 171.40 205.98 170.09 208.11 Z" />
<path fill="#ed2e33" opacity="1.00" d=" M 93.17 188.88 C 93.66 188.86 94.62 188.82 95.10 188.81 C 93.72 196.26 86.54 201.92 87.22 209.89 C 90.44 210.19 92.28 206.95 93.44 204.44 C 95.10 200.52 98.33 196.75 102.76 196.16 C 105.41 198.91 104.07 202.64 103.13 205.81 C 104.11 205.28 105.09 204.76 106.09 204.26 C 105.61 206.93 102.52 207.13 100.91 208.84 C 99.53 210.06 98.14 211.96 96.01 211.43 C 94.25 211.14 93.80 209.01 92.33 208.21 C 90.60 210.68 88.73 214.27 85.18 213.92 C 84.82 211.93 84.83 209.90 84.82 207.89 C 82.62 209.72 81.29 212.42 78.91 214.03 C 76.90 214.26 76.63 211.57 75.24 210.63 C 71.42 211.75 69.46 216.65 65.19 216.08 C 64.34 215.01 63.51 213.93 62.70 212.84 C 60.08 214.38 58.63 217.45 55.72 218.59 C 54.53 219.39 52.93 218.16 53.20 216.84 C 53.32 214.97 53.58 213.10 53.41 211.23 C 54.71 209.26 56.43 207.48 57.09 205.16 C 56.01 205.30 54.93 205.46 53.85 205.62 C 54.46 203.21 55.99 200.95 58.63 200.60 C 61.57 200.15 61.94 196.09 65.06 195.92 C 64.79 196.98 64.48 198.02 64.11 199.05 C 64.30 199.52 64.67 200.45 64.86 200.92 C 63.97 203.35 61.95 204.72 59.58 205.48 C 57.76 208.19 56.18 211.51 56.99 214.85 C 63.06 213.36 63.37 206.18 67.86 202.85 C 69.25 201.63 71.01 200.84 72.89 200.92 C 75.02 203.71 74.20 207.04 73.10 210.05 C 75.82 210.33 75.84 206.85 77.26 205.26 C 79.83 202.24 83.33 198.33 87.74 199.48 C 89.37 195.86 90.71 192.03 93.17 188.88 M 95.94 208.95 C 97.30 208.93 98.52 208.41 99.65 207.70 C 99.92 205.06 100.42 202.44 101.03 199.86 C 98.06 201.80 94.41 204.97 95.94 208.95 M 78.17 210.85 C 78.53 210.78 79.24 210.63 79.59 210.55 C 82.37 208.07 85.35 205.49 86.80 201.96 C 83.07 203.74 78.25 206.09 78.17 210.85 M 66.12 213.74 C 67.50 213.42 68.75 212.78 69.78 211.82 C 69.62 209.03 70.39 206.37 71.63 203.90 C 68.46 205.81 63.74 209.70 66.12 213.74 Z" />
</g>
<g id="#ec1d25ff">
<path fill="#ec1d25" opacity="1.00" d=" M 81.98 165.94 C 81.03 164.04 82.80 160.61 85.09 161.92 C 85.74 163.95 83.83 165.66 81.98 165.94 Z" />
</g>
<g id="#ed3035ff">
<path fill="#ed3035" opacity="1.00" d=" M 23.25 168.07 C 28.09 165.71 34.04 163.06 39.35 165.01 C 40.25 169.20 35.58 170.16 32.97 172.02 C 33.30 171.03 33.62 170.05 33.94 169.06 C 29.48 170.07 24.73 171.06 21.32 174.35 C 21.27 174.92 21.17 176.06 21.12 176.63 C 25.24 177.24 29.68 177.40 33.34 179.58 C 37.16 182.05 34.17 187.37 31.00 189.02 C 25.56 191.82 19.25 193.67 13.10 192.69 C 11.94 190.57 13.28 188.43 14.99 187.14 C 18.20 188.62 21.69 187.55 24.95 186.85 C 27.89 186.22 30.57 184.73 32.82 182.76 C 29.15 178.19 22.13 181.64 17.89 177.91 C 17.74 173.99 19.44 169.69 23.25 168.07 Z" />
</g>
<g id="#ed2328ff">
<path fill="#ed2328" opacity="1.00" d=" M 14.95 171.19 C 11.47 170.79 12.85 164.29 15.92 164.91 C 17.49 166.79 15.98 169.41 14.95 171.19 Z" />
</g>
<g id="#ed2f34ff">
<path fill="#ed2f34" opacity="1.00" d=" M 86.15 175.14 C 91.10 173.29 92.43 165.59 98.19 165.78 C 97.97 168.76 96.18 171.23 94.83 173.79 C 95.95 173.16 97.08 172.53 98.22 171.94 C 96.28 174.64 94.67 178.98 90.88 179.13 C 91.39 176.15 92.93 173.52 93.93 170.71 C 90.28 172.88 88.60 177.01 85.90 180.12 C 85.02 179.20 84.15 178.28 83.29 177.35 C 81.55 179.29 79.89 181.66 77.14 182.14 C 76.23 180.91 75.38 179.64 74.64 178.31 C 70.32 178.15 68.02 181.86 64.92 184.08 C 63.00 183.75 62.34 181.52 61.20 180.19 C 59.32 181.91 57.85 184.59 55.14 185.02 C 52.03 182.08 55.66 177.95 56.85 174.87 C 54.36 175.47 52.69 177.39 51.02 179.19 C 50.09 176.49 50.50 172.96 53.18 171.43 C 55.51 171.32 57.85 171.27 60.18 171.06 C 60.92 174.86 56.20 177.15 56.79 181.04 C 58.06 180.86 59.22 180.31 60.15 179.43 C 63.47 176.77 63.56 170.97 68.27 169.96 C 68.94 174.37 63.37 176.54 63.99 180.97 C 70.12 179.80 68.96 171.30 74.22 168.94 C 74.59 171.93 72.87 174.54 71.98 177.27 C 73.30 177.42 74.19 176.90 74.65 175.72 C 76.43 172.61 77.89 167.92 82.13 167.73 C 82.14 171.24 78.97 173.36 77.39 176.17 C 77.10 178.43 80.06 178.55 81.31 177.37 C 85.46 175.18 85.07 167.88 90.38 167.65 C 89.77 170.52 87.27 172.47 86.15 175.14 Z" />
<path fill="#ed2f34" opacity="1.00" d=" M 146.23 188.99 C 146.53 189.38 147.12 190.15 147.41 190.54 C 149.29 190.19 151.18 189.37 153.11 189.82 C 153.79 193.72 148.86 195.72 149.15 199.65 C 150.35 199.59 151.56 199.50 152.77 199.43 C 152.26 201.85 149.56 204.08 147.05 203.89 C 145.41 200.33 147.95 197.14 149.13 193.94 C 144.86 194.12 144.41 199.32 141.08 201.08 C 138.66 202.27 136.64 204.03 134.67 205.86 C 132.03 207.06 130.34 204.50 129.09 202.63 C 126.42 204.85 124.32 208.98 120.34 208.68 C 116.57 206.87 116.76 201.09 119.47 198.41 C 121.77 195.84 124.16 192.53 127.87 192.20 C 129.09 194.60 127.34 196.89 125.90 198.71 C 125.05 198.61 124.21 198.52 123.36 198.44 C 121.49 200.07 118.79 202.04 120.11 204.90 C 123.59 206.30 126.74 203.31 128.97 201.00 C 130.91 196.51 134.08 190.73 139.72 190.96 C 141.89 193.72 140.52 197.04 139.90 200.07 C 141.58 199.67 142.66 198.30 143.69 197.04 C 141.75 194.00 144.27 191.19 146.23 188.99 M 132.05 201.93 C 131.60 203.33 133.47 204.01 134.41 203.27 C 138.05 201.71 136.01 196.95 137.91 194.06 C 135.36 196.06 131.85 198.23 132.05 201.93 Z" />
</g>
<g id="#fffefeff">
</g>
<g id="#17148eff">
<path fill="#17148e" opacity="1.00" d=" M 123.44 168.80 C 122.14 166.61 126.12 166.76 125.05 169.06 C 124.65 168.99 123.84 168.86 123.44 168.80 Z" />
</g>
<g id="#2e2c93ff">
<path fill="#2e2c93" opacity="1.00" d=" M 111.30 169.35 C 112.93 169.59 111.97 173.52 110.30 172.71 C 109.69 171.59 110.41 170.10 111.30 169.35 Z" />
<path fill="#2e2c93" opacity="1.00" d=" M 220.81 187.79 C 221.04 184.54 223.41 182.10 225.00 179.44 L 225.00 188.01 C 223.60 187.93 222.21 187.86 220.81 187.79 Z" />
</g>
<g id="#f9c8c9ff">
<path fill="#f9c8c9" opacity="1.00" d=" M 100.25 170.84 C 100.35 170.73 100.53 170.52 100.63 170.41 C 100.53 170.52 100.35 170.73 100.25 170.84 Z" />
</g>
<g id="#ed2b31ff">
<path fill="#ed2b31" opacity="1.00" d=" M 217.20 185.34 C 219.51 180.26 222.23 175.37 225.00 170.52 L 225.00 176.62 C 222.87 180.36 220.76 184.10 218.77 187.91 C 217.08 189.37 216.42 186.41 217.20 185.34 Z" />
</g>
<g id="#ed2d32ff">
<path fill="#ed2d32" opacity="1.00" d=" M 11.00 175.12 C 11.59 174.02 11.73 172.57 12.84 171.81 C 15.59 173.78 13.01 176.81 12.02 179.01 C 9.53 183.19 7.90 187.91 4.87 191.75 C 3.97 191.46 3.07 191.18 2.17 190.90 C 4.57 185.36 8.43 180.58 11.00 175.12 Z" />
</g>
<g id="#1b188dff">
<path fill="#1b188d" opacity="1.00" d=" M 67.00 177.02 C 66.32 177.73 66.32 177.73 67.00 177.02 Z" />
</g>
<g id="#323097ff">
<path fill="#323097" opacity="1.00" d=" M 42.86 183.21 C 44.30 180.84 47.32 178.53 50.00 177.81 C 49.19 179.26 48.13 180.54 47.00 181.75 C 45.71 182.46 44.36 183.09 42.86 183.21 Z" />
</g>
<g id="#ed2c33ff">
<path fill="#ed2c33" opacity="1.00" d=" M 215.22 190.18 C 215.91 190.13 217.28 190.02 217.97 189.97 C 218.54 192.19 217.99 196.25 214.97 195.91 C 214.23 194.01 214.78 192.05 215.22 190.18 Z" />
</g>
<g id="#ed2c32ff">
<path fill="#ed2c32" opacity="1.00" d=" M 29.28 198.24 C 29.72 198.18 30.62 198.05 31.06 197.98 C 30.07 205.76 22.30 211.56 23.23 219.84 C 27.68 219.32 29.17 214.48 31.21 211.21 C 33.51 208.41 36.80 204.62 40.86 206.07 C 40.80 210.84 36.11 213.53 32.42 215.55 C 32.38 216.10 32.31 217.19 32.27 217.74 C 35.81 219.79 38.44 215.85 41.06 214.10 C 39.74 217.63 36.65 220.95 32.88 221.79 C 30.28 222.43 29.73 219.38 28.32 218.00 C 26.41 219.99 24.24 224.94 20.93 222.98 C 20.82 220.99 20.79 219.01 20.79 217.03 C 18.69 219.48 17.03 222.54 14.11 224.11 C 11.70 221.80 10.87 217.75 13.14 215.05 C 15.78 211.82 19.24 208.35 23.78 208.76 C 25.53 205.21 26.91 201.44 29.28 198.24 M 32.76 214.06 C 35.24 212.98 37.58 210.73 37.99 207.96 C 35.27 208.69 33.13 211.30 32.76 214.06 M 14.73 220.23 C 16.83 219.78 18.01 217.90 19.42 216.48 C 20.61 215.10 22.22 213.86 22.28 211.88 C 19.01 213.61 13.86 215.64 14.73 220.23 Z" />
</g>
<g id="#fef6f6ff">
<path fill="#fef6f6" opacity="1.00" d=" M 175.27 202.69 C 175.80 202.17 175.80 202.17 175.27 202.69 Z" />
</g>
<g id="#fff1f1ff">
<path fill="#fff1f1" opacity="1.00" d=" M 170.09 208.11 C 171.40 205.98 172.89 203.72 175.27 202.69 C 175.09 205.32 172.78 207.94 170.09 208.11 Z" />
</g>
</svg>
