<?xml version="1.0" encoding="UTF-8" ?>
<!DOCTYPE svg PUBLIC "-//W3C//DTD SVG 1.1//EN" "http://www.w3.org/Graphics/SVG/1.1/DTD/svg11.dtd">
<svg width="484pt" height="484pt" viewBox="0 0 484 484" version="1.1" xmlns="http://www.w3.org/2000/svg">
<g id="#ffffffff">
</g>
<g id="#f1e4b0ff">
<path fill="#f1e4b0" opacity="1.00" d=" M 229.32 67.54 C 278.65 63.37 329.34 81.61 364.63 116.34 C 390.06 140.44 407.45 172.69 414.46 206.95 C 425.22 258.03 411.33 313.69 377.67 353.60 C 347.93 389.95 302.90 413.31 256.02 416.46 C 206.50 420.50 155.46 401.96 120.41 366.66 C 86.32 333.82 66.97 286.31 68.05 239.02 C 68.29 214.81 74.00 190.76 84.07 168.78 C 102.59 128.15 137.44 95.29 179.07 79.13 C 195.08 72.68 212.11 68.80 229.32 67.54 M 218.52 125.54 C 218.37 140.83 217.54 156.10 217.47 171.39 C 208.63 177.62 199.64 183.64 190.69 189.70 C 189.46 190.37 188.67 191.44 188.93 192.90 C 189.29 201.61 189.34 210.33 189.36 219.04 C 189.13 221.38 190.97 223.04 192.35 224.66 C 197.76 230.59 203.09 236.58 208.40 242.60 C 210.72 245.17 212.79 248.40 216.36 249.30 C 224.94 251.87 233.51 254.45 242.04 257.14 C 244.94 258.12 248.04 257.76 250.99 257.25 C 256.80 256.22 262.70 255.75 268.48 254.55 C 268.46 249.71 268.45 244.87 268.59 240.03 C 267.39 239.25 266.19 238.46 265.00 237.67 C 269.14 226.44 274.11 215.53 278.54 204.41 C 280.13 200.75 281.29 196.87 283.34 193.42 C 285.97 189.73 289.47 186.66 293.40 184.41 C 300.36 180.39 307.46 176.60 314.29 172.36 C 314.06 156.62 313.49 140.89 313.30 125.16 C 302.45 125.36 291.87 128.13 281.15 129.48 C 274.90 130.06 268.75 132.33 262.43 131.37 C 248.59 129.11 234.73 126.95 220.87 124.80 C 220.28 124.98 219.10 125.35 218.52 125.54 M 134.78 268.55 C 132.95 272.07 132.07 275.98 130.79 279.72 C 125.18 296.48 119.78 313.32 114.15 330.08 C 113.35 332.45 113.34 334.97 113.28 337.44 C 115.98 338.92 118.96 339.89 122.08 339.56 C 125.16 332.73 127.04 325.45 129.51 318.39 C 134.00 304.02 139.13 289.85 143.23 275.37 C 145.61 281.24 147.37 287.33 149.37 293.34 C 153.64 306.61 158.16 319.80 162.33 333.11 C 163.15 335.29 163.69 337.94 165.81 339.27 C 168.61 340.55 171.34 338.39 173.84 337.37 C 173.76 335.15 173.79 332.89 173.09 330.76 C 166.59 311.23 160.23 291.65 153.81 272.09 C 153.06 269.70 151.52 267.23 148.98 266.52 C 145.66 265.94 142.24 265.98 138.90 266.39 C 137.34 266.57 135.58 267.08 134.78 268.55 M 274.52 284.54 C 272.97 286.27 273.50 288.83 273.31 290.96 C 273.43 302.31 273.22 313.66 273.42 325.01 C 273.39 329.68 275.85 334.28 280.01 336.52 C 284.47 339.39 289.96 338.56 294.98 338.68 C 300.16 338.54 305.80 339.45 310.44 336.57 C 314.69 334.36 317.07 329.67 317.26 324.99 C 317.55 318.00 317.25 311.00 317.35 304.00 C 317.22 297.45 317.89 290.82 316.53 284.35 C 313.58 283.35 310.48 283.43 307.58 284.58 C 307.02 297.05 307.53 309.55 307.32 322.03 C 307.22 324.64 306.15 327.07 305.25 329.49 C 298.74 330.72 292.06 330.52 285.53 329.63 C 282.13 324.01 283.65 317.26 283.36 311.06 C 283.06 302.11 284.06 293.09 282.69 284.21 C 280.03 283.86 276.88 282.70 274.52 284.54 M 185.05 287.17 C 180.44 290.51 180.96 296.93 180.82 301.97 C 181.19 314.13 180.01 326.37 181.57 338.46 C 184.48 339.46 187.53 339.46 190.43 338.45 C 191.90 332.40 191.22 326.16 191.34 320.01 C 191.47 311.19 191.08 302.36 191.60 293.55 C 197.10 292.02 202.84 292.52 208.48 292.40 C 209.57 289.72 209.64 286.84 208.37 284.21 C 200.61 284.16 191.93 282.67 185.05 287.17 M 222.67 286.73 C 218.84 289.07 217.14 293.71 217.33 298.05 C 217.41 305.67 217.16 313.30 217.47 320.92 C 217.59 324.67 219.92 328.04 223.12 329.87 C 229.06 333.55 236.41 332.47 243.04 332.35 C 247.14 332.17 246.12 327.14 245.62 324.43 C 241.04 323.91 236.42 324.04 231.83 323.65 C 229.07 323.48 227.28 320.53 227.41 317.96 C 227.28 311.33 227.24 304.69 227.44 298.06 C 227.27 295.24 229.64 292.86 232.38 292.64 C 236.60 292.28 240.85 292.37 245.08 292.57 C 247.39 292.63 250.04 293.82 250.54 296.30 C 251.79 302.12 250.58 308.08 250.82 313.97 C 250.64 322.30 251.98 330.72 250.65 339.00 C 250.25 342.19 246.78 343.24 244.03 343.29 C 238.61 343.39 232.86 344.09 227.83 341.60 C 227.56 340.40 227.25 339.21 226.91 338.04 C 226.58 335.58 223.58 335.44 221.88 334.33 C 220.46 335.08 218.94 335.68 217.72 336.74 C 216.90 340.22 217.18 344.46 219.84 347.13 C 223.05 350.24 227.65 351.58 232.04 351.61 C 237.37 351.66 242.69 351.69 248.01 351.59 C 254.05 351.43 259.69 346.76 260.65 340.73 C 261.85 333.22 260.86 325.58 260.89 318.02 C 261.09 311.00 261.49 303.95 260.95 296.94 C 260.65 292.41 258.15 287.97 254.00 285.95 C 249.80 283.35 244.67 284.24 240.00 284.09 C 234.19 284.21 227.77 283.28 222.67 286.73 M 334.14 287.10 C 329.49 289.97 328.30 295.90 328.59 300.99 C 328.51 305.50 330.04 310.63 334.40 312.75 C 341.82 317.47 350.87 314.47 358.99 315.93 C 362.52 316.79 363.00 321.04 362.68 324.06 C 362.77 326.79 361.05 329.84 358.06 329.98 C 352.76 330.47 347.30 330.68 342.03 329.79 C 338.06 328.64 338.67 323.67 337.35 320.59 C 334.67 318.67 331.32 319.79 328.43 320.48 C 328.36 324.12 327.79 328.07 329.69 331.38 C 332.30 336.01 337.64 338.90 342.94 338.67 C 348.33 338.66 353.72 338.72 359.10 338.64 C 364.28 338.58 369.38 335.42 371.61 330.73 C 373.06 326.69 372.90 322.24 372.41 318.04 C 371.73 313.11 367.55 309.46 363.00 307.99 C 355.71 305.26 347.34 309.28 340.38 305.36 C 337.25 301.70 337.90 293.76 343.39 292.71 C 347.95 292.26 352.57 292.36 357.15 292.61 C 359.59 292.61 361.54 294.73 361.88 297.06 C 362.72 298.93 362.44 302.19 365.06 302.60 C 367.53 302.97 371.69 303.33 372.30 300.09 C 372.73 295.95 371.63 291.42 368.61 288.43 C 365.03 284.94 359.89 283.86 355.04 283.92 C 348.04 284.00 340.21 282.75 334.14 287.10 M 141.19 310.35 C 136.64 311.77 134.65 318.39 138.36 321.70 C 141.66 325.57 148.74 323.95 149.99 318.97 C 151.87 313.77 146.29 308.57 141.19 310.35 Z" />
<path fill="#f1e4b0" opacity="1.00" d=" M 223.48 127.99 C 236.51 129.52 249.43 131.93 262.38 133.99 C 255.73 140.08 248.62 145.64 241.51 151.17 C 235.40 143.52 229.46 135.75 223.48 127.99 Z" />
<path fill="#f1e4b0" opacity="1.00" d=" M 269.47 134.04 C 282.38 131.72 295.37 129.75 308.37 127.93 C 303.21 136.39 297.56 144.53 292.00 152.73 C 284.46 146.53 276.63 140.68 269.47 134.04 Z" />
<path fill="#f1e4b0" opacity="1.00" d=" M 221.31 129.12 C 226.85 137.33 233.85 144.54 239.04 152.97 C 233.21 158.78 226.29 163.37 220.11 168.80 C 220.62 155.58 220.14 142.31 221.31 129.12 Z" />
<path fill="#f1e4b0" opacity="1.00" d=" M 294.10 154.49 C 299.41 146.09 305.23 138.02 310.47 129.59 C 311.70 142.61 311.33 155.71 311.71 168.78 C 305.75 164.12 299.95 159.28 294.10 154.49 Z" />
<path fill="#f1e4b0" opacity="1.00" d=" M 264.24 136.13 C 265.72 134.35 267.56 136.19 268.86 137.16 C 282.76 148.71 296.89 159.99 310.83 171.50 C 304.62 175.08 298.41 178.66 292.18 182.20 C 285.65 185.83 281.12 191.97 275.64 196.90 C 272.43 194.39 269.85 190.88 266.12 189.15 C 262.03 190.48 259.60 195.27 255.31 195.78 C 250.08 192.05 246.64 186.23 241.02 182.98 C 234.37 179.11 227.61 175.43 221.07 171.38 C 235.41 159.57 249.85 147.87 264.24 136.13 Z" />
<path fill="#f1e4b0" opacity="1.00" d=" M 192.73 191.42 C 201.57 185.46 210.33 179.38 219.17 173.43 C 225.02 176.61 230.68 180.14 236.54 183.30 C 238.45 184.49 241.07 185.46 241.35 188.05 C 243.46 196.85 245.79 205.62 247.82 214.45 C 244.79 216.54 241.81 218.71 238.87 220.92 C 223.38 211.27 207.89 201.59 192.73 191.42 Z" />
<path fill="#f1e4b0" opacity="1.00" d=" M 244.23 188.98 C 249.67 193.79 254.59 199.16 259.89 204.12 C 259.89 214.04 259.43 223.95 259.19 233.86 C 257.69 232.99 256.20 232.11 254.71 231.24 C 251.28 217.14 247.66 203.08 244.23 188.98 Z" />
<path fill="#f1e4b0" opacity="1.00" d=" M 257.74 198.30 C 260.43 196.16 263.03 193.85 266.06 192.19 C 269.02 193.94 271.36 196.51 273.87 198.81 C 271.36 201.60 268.54 204.07 265.59 206.38 C 262.98 203.68 260.34 201.00 257.74 198.30 Z" />
<path fill="#f1e4b0" opacity="1.00" d=" M 191.63 195.50 C 208.48 214.74 224.82 234.44 241.29 254.01 C 233.47 251.94 225.77 249.46 218.03 247.14 C 215.05 246.44 212.96 244.12 211.05 241.91 C 204.74 234.52 198.19 227.35 191.74 220.08 C 191.77 211.89 191.63 203.69 191.63 195.50 Z" />
<path fill="#f1e4b0" opacity="1.00" d=" M 197.33 197.89 C 219.51 211.48 241.25 225.77 263.24 239.67 C 254.31 241.67 245.16 242.41 236.12 243.78 C 223.26 228.42 210.04 213.37 197.33 197.89 Z" />
<path fill="#f1e4b0" opacity="1.00" d=" M 266.93 208.97 C 270.88 205.61 274.23 201.60 278.15 198.19 C 273.20 211.08 267.75 223.78 262.45 236.53 C 261.36 232.77 261.67 228.81 261.88 224.95 C 262.26 219.02 262.47 213.09 262.47 207.15 C 263.85 207.96 265.26 210.61 266.93 208.97 Z" />
<path fill="#f1e4b0" opacity="1.00" d=" M 241.90 222.78 C 243.27 220.13 246.15 218.83 248.40 217.07 C 249.57 220.90 250.49 224.81 251.04 228.78 C 247.92 226.90 244.72 225.10 241.90 222.78 Z" />
<path fill="#f1e4b0" opacity="1.00" d=" M 238.45 246.11 C 247.57 244.71 256.73 243.57 265.85 242.20 C 265.89 245.63 265.90 249.06 265.91 252.49 C 259.32 253.34 252.77 254.68 246.13 255.06 C 243.04 252.57 240.86 249.21 238.45 246.11 Z" />
</g>
<g id="#fe6d02ff">
<path fill="#fe6d02" opacity="1.00" d=" M 218.52 125.54 C 219.10 125.35 220.28 124.98 220.87 124.80 C 234.73 126.95 248.59 129.11 262.43 131.37 C 268.75 132.33 274.90 130.06 281.15 129.48 C 291.87 128.13 302.45 125.36 313.30 125.16 C 313.49 140.89 314.06 156.62 314.29 172.36 C 307.46 176.60 300.36 180.39 293.40 184.41 C 289.47 186.66 285.97 189.73 283.34 193.42 C 281.29 196.87 280.13 200.75 278.54 204.41 C 274.11 215.53 269.14 226.44 265.00 237.67 C 266.19 238.46 267.39 239.25 268.59 240.03 C 268.45 244.87 268.46 249.71 268.48 254.55 C 262.70 255.75 256.80 256.22 250.99 257.25 C 248.04 257.76 244.94 258.12 242.04 257.14 C 233.51 254.45 224.94 251.87 216.36 249.30 C 212.79 248.40 210.72 245.17 208.40 242.60 C 203.09 236.58 197.76 230.59 192.35 224.66 C 190.97 223.04 189.13 221.38 189.36 219.04 C 189.34 210.33 189.29 201.61 188.93 192.90 C 188.67 191.44 189.46 190.37 190.69 189.70 C 199.64 183.64 208.63 177.62 217.47 171.39 C 217.54 156.10 218.37 140.83 218.52 125.54 M 223.48 127.99 C 229.46 135.75 235.40 143.52 241.51 151.17 C 248.62 145.64 255.73 140.08 262.38 133.99 C 249.43 131.93 236.51 129.52 223.48 127.99 M 269.47 134.04 C 276.63 140.68 284.46 146.53 292.00 152.73 C 297.56 144.53 303.21 136.39 308.37 127.93 C 295.37 129.75 282.38 131.72 269.47 134.04 M 221.31 129.12 C 220.14 142.31 220.62 155.58 220.11 168.80 C 226.29 163.37 233.21 158.78 239.04 152.97 C 233.85 144.54 226.85 137.33 221.31 129.12 M 294.10 154.49 C 299.95 159.28 305.75 164.12 311.71 168.78 C 311.33 155.71 311.70 142.61 310.47 129.59 C 305.23 138.02 299.41 146.09 294.10 154.49 M 264.24 136.13 C 249.85 147.87 235.41 159.57 221.07 171.38 C 227.61 175.43 234.37 179.11 241.02 182.98 C 246.64 186.23 250.08 192.05 255.31 195.78 C 259.60 195.27 262.03 190.48 266.12 189.15 C 269.85 190.88 272.43 194.39 275.64 196.90 C 281.12 191.97 285.65 185.83 292.18 182.20 C 298.41 178.66 304.62 175.08 310.83 171.50 C 296.89 159.99 282.76 148.71 268.86 137.16 C 267.56 136.19 265.72 134.35 264.24 136.13 M 192.73 191.42 C 207.89 201.59 223.38 211.27 238.87 220.92 C 241.81 218.71 244.79 216.54 247.82 214.45 C 245.79 205.62 243.46 196.85 241.35 188.05 C 241.07 185.46 238.45 184.49 236.54 183.30 C 230.68 180.14 225.02 176.61 219.17 173.43 C 210.33 179.38 201.57 185.46 192.73 191.42 M 244.23 188.98 C 247.66 203.08 251.28 217.14 254.71 231.24 C 256.20 232.11 257.69 232.99 259.19 233.86 C 259.43 223.95 259.89 214.04 259.89 204.12 C 254.59 199.16 249.67 193.79 244.23 188.98 M 257.74 198.30 C 260.34 201.00 262.98 203.68 265.59 206.38 C 268.54 204.07 271.36 201.60 273.87 198.81 C 271.36 196.51 269.02 193.94 266.06 192.19 C 263.03 193.85 260.43 196.16 257.74 198.30 M 191.63 195.50 C 191.63 203.69 191.77 211.89 191.74 220.08 C 198.19 227.35 204.74 234.52 211.05 241.91 C 212.96 244.12 215.05 246.44 218.03 247.14 C 225.77 249.46 233.47 251.94 241.29 254.01 C 224.82 234.44 208.48 214.74 191.63 195.50 M 197.33 197.89 C 210.04 213.37 223.26 228.42 236.12 243.78 C 245.16 242.41 254.31 241.67 263.24 239.67 C 241.25 225.77 219.51 211.48 197.33 197.89 M 266.93 208.97 C 265.26 210.61 263.85 207.96 262.47 207.15 C 262.47 213.09 262.26 219.02 261.88 224.95 C 261.67 228.81 261.36 232.77 262.45 236.53 C 267.75 223.78 273.20 211.08 278.15 198.19 C 274.23 201.60 270.88 205.61 266.93 208.97 M 241.90 222.78 C 244.72 225.10 247.92 226.90 251.04 228.78 C 250.49 224.81 249.57 220.90 248.40 217.07 C 246.15 218.83 243.27 220.13 241.90 222.78 M 238.45 246.11 C 240.86 249.21 243.04 252.57 246.13 255.06 C 252.77 254.68 259.32 253.34 265.91 252.49 C 265.90 249.06 265.89 245.63 265.85 242.20 C 256.73 243.57 247.57 244.71 238.45 246.11 Z" />
<path fill="#fe6d02" opacity="1.00" d=" M 134.78 268.55 C 135.58 267.08 137.34 266.57 138.90 266.39 C 142.24 265.98 145.66 265.94 148.98 266.52 C 151.52 267.23 153.06 269.70 153.81 272.09 C 160.23 291.65 166.59 311.23 173.09 330.76 C 173.79 332.89 173.76 335.15 173.84 337.37 C 171.34 338.39 168.61 340.55 165.81 339.27 C 163.69 337.94 163.15 335.29 162.33 333.11 C 158.16 319.80 153.64 306.61 149.37 293.34 C 147.37 287.33 145.61 281.24 143.23 275.37 C 139.13 289.85 134.00 304.02 129.51 318.39 C 127.04 325.45 125.16 332.73 122.08 339.56 C 118.96 339.89 115.98 338.92 113.28 337.44 C 113.34 334.97 113.35 332.45 114.15 330.08 C 119.78 313.32 125.18 296.48 130.79 279.72 C 132.07 275.98 132.95 272.07 134.78 268.55 Z" />
<path fill="#fe6d02" opacity="1.00" d=" M 274.52 284.54 C 276.88 282.70 280.03 283.86 282.69 284.21 C 284.06 293.09 283.06 302.11 283.36 311.06 C 283.65 317.26 282.13 324.01 285.53 329.63 C 292.06 330.52 298.74 330.72 305.25 329.49 C 306.15 327.07 307.22 324.64 307.32 322.03 C 307.53 309.55 307.02 297.05 307.58 284.58 C 310.48 283.43 313.58 283.35 316.53 284.35 C 317.89 290.82 317.22 297.45 317.35 304.00 C 317.25 311.00 317.55 318.00 317.26 324.99 C 317.07 329.67 314.69 334.36 310.44 336.57 C 305.80 339.45 300.16 338.54 294.98 338.68 C 289.96 338.56 284.47 339.39 280.01 336.52 C 275.85 334.28 273.39 329.68 273.42 325.01 C 273.22 313.66 273.43 302.31 273.31 290.96 C 273.50 288.83 272.97 286.27 274.52 284.54 Z" />
<path fill="#fe6d02" opacity="1.00" d=" M 185.05 287.17 C 191.93 282.67 200.61 284.16 208.37 284.21 C 209.64 286.84 209.57 289.72 208.48 292.40 C 202.84 292.52 197.10 292.02 191.60 293.55 C 191.08 302.36 191.47 311.19 191.34 320.01 C 191.22 326.16 191.90 332.40 190.43 338.45 C 187.53 339.46 184.48 339.46 181.57 338.46 C 180.01 326.37 181.19 314.13 180.82 301.97 C 180.96 296.93 180.44 290.51 185.05 287.17 Z" />
<path fill="#fe6d02" opacity="1.00" d=" M 222.67 286.73 C 227.77 283.28 234.19 284.21 240.00 284.09 C 244.67 284.24 249.80 283.35 254.00 285.95 C 258.15 287.97 260.65 292.41 260.95 296.94 C 261.49 303.95 261.09 311.00 260.89 318.02 C 260.86 325.58 261.85 333.22 260.65 340.73 C 259.69 346.76 254.05 351.43 248.01 351.59 C 242.69 351.69 237.37 351.66 232.04 351.61 C 227.65 351.58 223.05 350.24 219.84 347.13 C 217.18 344.46 216.90 340.22 217.72 336.74 C 218.94 335.68 220.46 335.08 221.88 334.33 C 223.58 335.44 226.58 335.58 226.91 338.04 C 227.25 339.21 227.56 340.40 227.83 341.60 C 232.86 344.09 238.61 343.39 244.03 343.29 C 246.78 343.24 250.25 342.19 250.65 339.00 C 251.98 330.72 250.64 322.30 250.82 313.97 C 250.58 308.08 251.79 302.12 250.54 296.30 C 250.04 293.82 247.39 292.63 245.08 292.57 C 240.85 292.37 236.60 292.28 232.38 292.64 C 229.64 292.86 227.27 295.24 227.44 298.06 C 227.24 304.69 227.28 311.33 227.41 317.96 C 227.28 320.53 229.07 323.48 231.83 323.65 C 236.42 324.04 241.04 323.91 245.62 324.43 C 246.12 327.14 247.14 332.17 243.04 332.35 C 236.41 332.47 229.06 333.55 223.12 329.87 C 219.92 328.04 217.59 324.67 217.47 320.92 C 217.16 313.30 217.41 305.67 217.33 298.05 C 217.14 293.71 218.84 289.07 222.67 286.73 Z" />
<path fill="#fe6d02" opacity="1.00" d=" M 334.14 287.10 C 340.21 282.75 348.04 284.00 355.04 283.92 C 359.89 283.86 365.03 284.94 368.61 288.43 C 371.63 291.42 372.73 295.95 372.30 300.09 C 371.69 303.33 367.53 302.97 365.06 302.60 C 362.44 302.19 362.72 298.93 361.88 297.06 C 361.54 294.73 359.59 292.61 357.15 292.61 C 352.57 292.36 347.95 292.26 343.39 292.71 C 337.90 293.76 337.25 301.70 340.38 305.36 C 347.34 309.28 355.71 305.26 363.00 307.99 C 367.55 309.46 371.73 313.11 372.41 318.04 C 372.90 322.24 373.06 326.69 371.61 330.73 C 369.38 335.42 364.28 338.58 359.10 338.64 C 353.72 338.72 348.33 338.66 342.94 338.67 C 337.64 338.90 332.30 336.01 329.69 331.38 C 327.79 328.07 328.36 324.12 328.43 320.48 C 331.32 319.79 334.67 318.67 337.35 320.59 C 338.67 323.67 338.06 328.64 342.03 329.79 C 347.30 330.68 352.76 330.47 358.06 329.98 C 361.05 329.84 362.77 326.79 362.68 324.06 C 363.00 321.04 362.52 316.79 358.99 315.93 C 350.87 314.47 341.82 317.47 334.40 312.75 C 330.04 310.63 328.51 305.50 328.59 300.99 C 328.30 295.90 329.49 289.97 334.14 287.10 Z" />
<path fill="#fe6d02" opacity="1.00" d=" M 141.19 310.35 C 146.29 308.57 151.87 313.77 149.99 318.97 C 148.74 323.95 141.66 325.57 138.36 321.70 C 134.65 318.39 136.64 311.77 141.19 310.35 Z" />
</g>
</svg>
